<svg width="350" height="350" viewBox="0 0 450 553" fill="none" xmlns="http://www.w3.org/2000/svg">
<mask id="path-1-outside-1_112_835" maskUnits="userSpaceOnUse" x="223.828" y="255.591" width="222.329" height="182.439" fill="black">
<rect fill="white" x="223.828" y="255.591" width="222.329" height="182.439"/>
<path fill-rule="evenodd" clip-rule="evenodd" d="M304.865 332.449L358.77 365.276L343.342 389.444L267.921 341.712L304.865 332.449Z"/>
<path d="M236.833 317.517L248.997 298.463C249.898 297.051 251.755 296.629 253.145 297.52L304.865 332.449L267.921 341.712L237.717 321.688C236.328 320.797 235.932 318.93 236.833 317.517Z"/>
<path d="M428.036 382.893L409.168 412.451C405.796 417.733 399.916 420.418 394.148 419.909L427.033 368.394C430.452 372.318 431.015 378.227 428.036 382.893Z"/>
<path d="M388.032 380.444L393.105 372.498C399.715 362.143 413.335 359.048 423.525 365.585L424.5 366.21C425.467 366.83 426.313 367.568 427.033 368.394L394.148 419.909C391.692 419.693 389.257 418.898 387.044 417.478L383.112 414.956L370.973 407.169L343.342 389.444L358.77 365.276L383.884 381.387C385.274 382.278 387.131 381.856 388.032 380.444Z"/>
</mask>
<g filter="url(#filter0_i_112_835)">
<path fill-rule="evenodd" clip-rule="evenodd" d="M304.865 332.449L358.77 365.276L343.342 389.444L267.921 341.712L304.865 332.449Z" fill="#A78AFE"/>
<path d="M236.833 317.517L248.997 298.463C249.898 297.051 251.755 296.629 253.145 297.52L304.865 332.449L267.921 341.712L237.717 321.688C236.328 320.797 235.932 318.93 236.833 317.517Z" fill="#222325"/>
<path d="M236.833 317.517L248.997 298.463C249.898 297.051 251.755 296.629 253.145 297.52L304.865 332.449L267.921 341.712L237.717 321.688C236.328 320.797 235.932 318.93 236.833 317.517Z" fill="black" fill-opacity="0.2"/>
<path d="M428.036 382.893L409.168 412.451C405.796 417.733 399.916 420.418 394.148 419.909L427.033 368.394C430.452 372.318 431.015 378.227 428.036 382.893Z" fill="#FF6D3B"/>
<path d="M388.032 380.444L393.105 372.498C399.715 362.143 413.335 359.048 423.525 365.585L424.5 366.21C425.467 366.83 426.313 367.568 427.033 368.394L394.148 419.909C391.692 419.693 389.257 418.898 387.044 417.478L383.112 414.956L370.973 407.169L343.342 389.444L358.77 365.276L383.884 381.387C385.274 382.278 387.131 381.856 388.032 380.444Z" fill="white"/>
</g>
<path d="M362.137 367.436L346.709 391.604L339.975 387.285L355.403 363.117L362.137 367.436ZM266.948 337.828L303.891 328.565L305.838 336.333L268.895 345.597L266.948 337.828ZM430.4 370.554L397.515 422.069L390.781 417.749L423.666 366.234L430.4 370.554ZM237.717 321.688L242.022 314.945C242.056 314.967 242.089 314.989 242.123 315.011L237.717 321.688ZM253.145 297.52L257.449 290.777C257.502 290.811 257.555 290.846 257.607 290.881L253.145 297.52ZM358.77 365.276L362.916 358.434C362.969 358.467 363.022 358.5 363.074 358.533L358.77 365.276ZM343.342 389.444L347.606 382.675C347.619 382.684 347.633 382.692 347.647 382.701L343.342 389.444ZM267.921 341.712L263.658 348.482C263.61 348.452 263.563 348.421 263.516 348.39L267.921 341.712ZM304.865 332.449L300.719 339.291C300.612 339.226 300.506 339.158 300.403 339.088L304.865 332.449ZM427.033 368.394L421.015 373.658L421.015 373.658L427.033 368.394ZM394.148 419.909L393.455 427.886L393.455 427.886L394.148 419.909ZM255.73 302.782L243.567 321.837L230.1 313.198L242.263 294.143L255.73 302.782ZM399.839 376.817L394.766 384.764L381.299 376.125L386.372 368.178L399.839 376.817ZM419.221 372.328C412.841 368.236 404.131 370.093 399.839 376.817L386.372 368.178C395.299 354.192 413.828 349.86 427.83 358.841L419.221 372.328ZM420.195 372.953L419.221 372.328L427.83 358.841L428.805 359.467L420.195 372.953ZM402.434 408.131L421.302 378.573L434.77 387.212L415.902 416.77L402.434 408.131ZM387.417 408.213L391.349 410.735L382.74 424.222L378.808 421.699L387.417 408.213ZM375.277 400.426L387.417 408.213L378.808 421.699L366.668 413.912L375.277 400.426ZM388.189 374.644C385.767 373.09 382.715 373.906 381.299 376.125L394.766 384.764C391.547 389.807 384.781 391.466 379.58 388.13L388.189 374.644ZM243.567 321.837C244.983 319.618 244.443 316.498 242.022 314.945L233.413 328.431C228.212 325.095 226.88 318.241 230.1 313.198L243.567 321.837ZM242.263 294.143C245.482 289.1 252.249 287.441 257.449 290.777L248.84 304.263C251.262 305.817 254.314 305.001 255.73 302.782L242.263 294.143ZM379.58 388.13L354.465 372.02L363.074 358.533L388.189 374.644L379.58 388.13ZM347.647 382.701L375.277 400.426L366.668 413.912L339.038 396.188L347.647 382.701ZM242.123 315.011L272.327 335.035L263.516 348.39L233.312 328.366L242.123 315.011ZM272.184 334.943L347.606 382.675L339.079 396.214L263.658 348.482L272.184 334.943ZM354.624 372.119L300.719 339.291L309.011 325.607L362.916 358.434L354.624 372.119ZM300.403 339.088L248.682 304.16L257.607 290.881L309.327 325.81L300.403 339.088ZM421.302 378.573C422.353 376.927 422.115 374.92 421.015 373.658L433.051 363.13C438.789 369.716 439.676 379.527 434.77 387.212L421.302 378.573ZM421.015 373.658C420.788 373.397 420.517 373.159 420.195 372.953L428.805 359.467C430.416 360.501 431.838 361.739 433.051 363.13L421.015 373.658ZM391.349 410.735C392.446 411.439 393.636 411.826 394.841 411.932L393.455 427.886C389.749 427.56 386.068 426.357 382.74 424.222L391.349 410.735ZM394.841 411.932C397.718 412.186 400.703 410.843 402.434 408.131L415.902 416.77C410.889 424.623 402.114 428.649 393.455 427.886L394.841 411.932Z" fill="#222325" mask="url(#path-1-outside-1_112_835)"/>
<path d="M362.137 367.436L346.709 391.604L339.975 387.285L355.403 363.117L362.137 367.436ZM266.948 337.828L303.891 328.565L305.838 336.333L268.895 345.597L266.948 337.828ZM430.4 370.554L397.515 422.069L390.781 417.749L423.666 366.234L430.4 370.554ZM237.717 321.688L242.022 314.945C242.056 314.967 242.089 314.989 242.123 315.011L237.717 321.688ZM253.145 297.52L257.449 290.777C257.502 290.811 257.555 290.846 257.607 290.881L253.145 297.52ZM358.77 365.276L362.916 358.434C362.969 358.467 363.022 358.5 363.074 358.533L358.77 365.276ZM343.342 389.444L347.606 382.675C347.619 382.684 347.633 382.692 347.647 382.701L343.342 389.444ZM267.921 341.712L263.658 348.482C263.61 348.452 263.563 348.421 263.516 348.39L267.921 341.712ZM304.865 332.449L300.719 339.291C300.612 339.226 300.506 339.158 300.403 339.088L304.865 332.449ZM427.033 368.394L421.015 373.658L421.015 373.658L427.033 368.394ZM394.148 419.909L393.455 427.886L393.455 427.886L394.148 419.909ZM255.73 302.782L243.567 321.837L230.1 313.198L242.263 294.143L255.73 302.782ZM399.839 376.817L394.766 384.764L381.299 376.125L386.372 368.178L399.839 376.817ZM419.221 372.328C412.841 368.236 404.131 370.093 399.839 376.817L386.372 368.178C395.299 354.192 413.828 349.86 427.83 358.841L419.221 372.328ZM420.195 372.953L419.221 372.328L427.83 358.841L428.805 359.467L420.195 372.953ZM402.434 408.131L421.302 378.573L434.77 387.212L415.902 416.77L402.434 408.131ZM387.417 408.213L391.349 410.735L382.74 424.222L378.808 421.699L387.417 408.213ZM375.277 400.426L387.417 408.213L378.808 421.699L366.668 413.912L375.277 400.426ZM388.189 374.644C385.767 373.09 382.715 373.906 381.299 376.125L394.766 384.764C391.547 389.807 384.781 391.466 379.58 388.13L388.189 374.644ZM243.567 321.837C244.983 319.618 244.443 316.498 242.022 314.945L233.413 328.431C228.212 325.095 226.88 318.241 230.1 313.198L243.567 321.837ZM242.263 294.143C245.482 289.1 252.249 287.441 257.449 290.777L248.84 304.263C251.262 305.817 254.314 305.001 255.73 302.782L242.263 294.143ZM379.58 388.13L354.465 372.02L363.074 358.533L388.189 374.644L379.58 388.13ZM347.647 382.701L375.277 400.426L366.668 413.912L339.038 396.188L347.647 382.701ZM242.123 315.011L272.327 335.035L263.516 348.39L233.312 328.366L242.123 315.011ZM272.184 334.943L347.606 382.675L339.079 396.214L263.658 348.482L272.184 334.943ZM354.624 372.119L300.719 339.291L309.011 325.607L362.916 358.434L354.624 372.119ZM300.403 339.088L248.682 304.16L257.607 290.881L309.327 325.81L300.403 339.088ZM421.302 378.573C422.353 376.927 422.115 374.92 421.015 373.658L433.051 363.13C438.789 369.716 439.676 379.527 434.77 387.212L421.302 378.573ZM421.015 373.658C420.788 373.397 420.517 373.159 420.195 372.953L428.805 359.467C430.416 360.501 431.838 361.739 433.051 363.13L421.015 373.658ZM391.349 410.735C392.446 411.439 393.636 411.826 394.841 411.932L393.455 427.886C389.749 427.56 386.068 426.357 382.74 424.222L391.349 410.735ZM394.841 411.932C397.718 412.186 400.703 410.843 402.434 408.131L415.902 416.77C410.889 424.623 402.114 428.649 393.455 427.886L394.841 411.932Z" fill="black" fill-opacity="0.2" mask="url(#path-1-outside-1_112_835)"/>
<line x1="346.687" y1="389.354" x2="360.609" y2="368.74" stroke="#222325" stroke-width="8" stroke-linecap="round"/>
<line x1="346.687" y1="389.354" x2="360.609" y2="368.74" stroke="black" stroke-opacity="0.2" stroke-width="8" stroke-linecap="round"/>
<line x1="393.499" y1="421.041" x2="425.718" y2="368.961" stroke="#222325" stroke-width="8" stroke-linecap="round"/>
<line x1="393.499" y1="421.041" x2="425.718" y2="368.961" stroke="black" stroke-opacity="0.2" stroke-width="8" stroke-linecap="round"/>
<path d="M256.475 158.944L256.304 158.694L256.097 158.473C249.015 150.895 241.534 143.32 232.069 138.605C222.411 133.794 210.999 132.094 196.275 135.532C182.083 138.846 170.365 145.378 161.011 150.592C160.787 150.717 160.565 150.84 160.344 150.963C155.526 153.648 151.502 155.859 147.96 157.252C144.393 158.653 141.919 158.97 140.068 158.523C138.252 158.083 137.009 157.064 135.913 155.34C134.715 153.455 133.849 150.976 132.842 147.841C132.764 147.599 132.686 147.353 132.606 147.103C131.716 144.316 130.686 141.092 129.181 138.198C127.495 134.956 125.068 131.821 121.219 129.792C118.678 128.452 115.709 128.396 112.952 128.834C110.127 129.284 107.028 130.332 103.832 131.772C97.4273 134.658 90.0847 139.37 82.829 145.164C68.3893 156.694 53.5328 173.125 46.9144 189.36C40.8457 204.246 36.9594 221.499 38.8662 240.616C40.7752 259.755 48.4649 280.493 65.1406 302.366C69.401 307.954 83.235 323.401 87.7924 328.385C95.7796 337.119 109.205 350.927 124.432 362.698C139.478 374.33 157.037 384.578 173.185 385.089C182.024 385.368 189.964 382.345 197.189 378.052C204.098 373.947 210.629 368.504 216.819 363.346C217.053 363.151 217.286 362.957 217.519 362.763C217.521 362.761 217.523 362.76 217.525 362.758L278.449 312.344L278.459 312.336C285.036 306.858 293.1 299.417 298.202 288.564C303.36 277.593 305.314 263.533 300.436 245.132C295.63 227 284.549 205.376 274.843 188.494C269.962 180.006 265.378 172.63 262.012 167.374C260.329 164.745 258.949 162.644 257.988 161.198C257.508 160.475 257.132 159.915 256.875 159.534C256.81 159.437 256.752 159.352 256.702 159.278C256.654 159.207 256.613 159.148 256.58 159.099L256.504 158.986L256.483 158.956L256.478 158.948L256.476 158.946C256.476 158.945 256.475 158.944 253.177 161.206L256.475 158.944Z" fill="#EEEFFC"/>
<path d="M256.475 158.944L256.304 158.694L256.097 158.473C249.015 150.895 241.534 143.32 232.069 138.605C222.411 133.794 210.999 132.094 196.275 135.532C182.083 138.846 170.365 145.378 161.011 150.592C160.787 150.717 160.565 150.84 160.344 150.963C155.526 153.648 151.502 155.859 147.96 157.252C144.393 158.653 141.919 158.97 140.068 158.523C138.252 158.083 137.009 157.064 135.913 155.34C134.715 153.455 133.849 150.976 132.842 147.841C132.764 147.599 132.686 147.353 132.606 147.103C131.716 144.316 130.686 141.092 129.181 138.198C127.495 134.956 125.068 131.821 121.219 129.792C118.678 128.452 115.709 128.396 112.952 128.834C110.127 129.284 107.028 130.332 103.832 131.772C97.4273 134.658 90.0847 139.37 82.829 145.164C68.3893 156.694 53.5328 173.125 46.9144 189.36C40.8457 204.246 36.9594 221.499 38.8662 240.616C40.7752 259.755 48.4649 280.493 65.1406 302.366C69.401 307.954 83.235 323.401 87.7924 328.385C95.7796 337.119 109.205 350.927 124.432 362.698C139.478 374.33 157.037 384.578 173.185 385.089C182.024 385.368 189.964 382.345 197.189 378.052C204.098 373.947 210.629 368.504 216.819 363.346C217.053 363.151 217.286 362.957 217.519 362.763C217.521 362.761 217.523 362.76 217.525 362.758L278.449 312.344L278.459 312.336C285.036 306.858 293.1 299.417 298.202 288.564C303.36 277.593 305.314 263.533 300.436 245.132C295.63 227 284.549 205.376 274.843 188.494C269.962 180.006 265.378 172.63 262.012 167.374C260.329 164.745 258.949 162.644 257.988 161.198C257.508 160.475 257.132 159.915 256.875 159.534C256.81 159.437 256.752 159.352 256.702 159.278C256.654 159.207 256.613 159.148 256.58 159.099L256.504 158.986L256.483 158.956L256.478 158.948L256.476 158.946C256.476 158.945 256.475 158.944 253.177 161.206L256.475 158.944Z" stroke="#222325" stroke-width="8"/>
<path d="M256.475 158.944L256.304 158.694L256.097 158.473C249.015 150.895 241.534 143.32 232.069 138.605C222.411 133.794 210.999 132.094 196.275 135.532C182.083 138.846 170.365 145.378 161.011 150.592C160.787 150.717 160.565 150.84 160.344 150.963C155.526 153.648 151.502 155.859 147.96 157.252C144.393 158.653 141.919 158.97 140.068 158.523C138.252 158.083 137.009 157.064 135.913 155.34C134.715 153.455 133.849 150.976 132.842 147.841C132.764 147.599 132.686 147.353 132.606 147.103C131.716 144.316 130.686 141.092 129.181 138.198C127.495 134.956 125.068 131.821 121.219 129.792C118.678 128.452 115.709 128.396 112.952 128.834C110.127 129.284 107.028 130.332 103.832 131.772C97.4273 134.658 90.0847 139.37 82.829 145.164C68.3893 156.694 53.5328 173.125 46.9144 189.36C40.8457 204.246 36.9594 221.499 38.8662 240.616C40.7752 259.755 48.4649 280.493 65.1406 302.366C69.401 307.954 83.235 323.401 87.7924 328.385C95.7796 337.119 109.205 350.927 124.432 362.698C139.478 374.33 157.037 384.578 173.185 385.089C182.024 385.368 189.964 382.345 197.189 378.052C204.098 373.947 210.629 368.504 216.819 363.346C217.053 363.151 217.286 362.957 217.519 362.763C217.521 362.761 217.523 362.76 217.525 362.758L278.449 312.344L278.459 312.336C285.036 306.858 293.1 299.417 298.202 288.564C303.36 277.593 305.314 263.533 300.436 245.132C295.63 227 284.549 205.376 274.843 188.494C269.962 180.006 265.378 172.63 262.012 167.374C260.329 164.745 258.949 162.644 257.988 161.198C257.508 160.475 257.132 159.915 256.875 159.534C256.81 159.437 256.752 159.352 256.702 159.278C256.654 159.207 256.613 159.148 256.58 159.099L256.504 158.986L256.483 158.956L256.478 158.948L256.476 158.946C256.476 158.945 256.475 158.944 253.177 161.206L256.475 158.944Z" stroke="black" stroke-opacity="0.2" stroke-width="8"/>
<mask id="mask0_112_835" style="mask-type:alpha" maskUnits="userSpaceOnUse" x="42" y="132" width="258" height="250">
<path d="M253.176 161.206C238.984 146.019 224.993 132.935 197.183 139.429C169.372 145.923 151.294 165.356 139.127 162.412C126.961 159.468 130.972 139.458 119.355 133.332C107.737 127.206 63.1315 160.171 50.6163 190.871C38.846 219.744 35.7613 257.233 68.3194 299.938C72.4484 305.354 86.1466 320.658 90.742 325.683C106.582 343.005 143.737 380.154 173.312 381.089C188.936 381.583 202.033 370.456 214.968 359.682L275.902 309.26C288.837 298.487 305.896 281.336 296.571 246.158C287.247 210.981 253.176 161.206 253.176 161.206Z" fill="#EEEFFC"/>
</mask>
<g mask="url(#mask0_112_835)">
<path d="M254.745 163.682C241.232 149.206 226.712 141.285 200.39 147.327C174.067 153.37 153.012 173.465 135.865 169.235C118.717 165.005 125.728 149.125 114.693 143.26C103.659 137.396 60.1226 170.632 48.3976 199.715C37.3704 227.068 41.5132 264.356 72.5478 305.029C76.4836 310.187 89.5293 324.772 93.9053 329.561C108.989 346.071 144.355 381.491 172.382 382.507C187.188 383.044 199.549 372.54 211.758 362.371L269.275 314.779C281.484 304.611 305.219 277.929 296.231 244.501C287.244 211.072 254.745 163.682 254.745 163.682Z" fill="#C9CEF4"/>
<path d="M281.5 231.861C286.857 250.076 290.26 266.855 283.645 284.892C277.03 302.929 253.791 319.997 239.329 331.594C184.278 375.741 162.292 372.53 130.723 349.677C99.1543 326.824 63.3418 253.165 52.7811 240.885C52.7811 240.885 41.229 222.263 74.4455 214.611C107.662 206.958 118.126 204.044 151.828 194.013C185.531 183.982 208.064 174.175 236.263 176.132C264.462 178.089 276.144 213.645 281.5 231.861Z" fill="#A78AFE"/>
<g filter="url(#filter1_i_112_835)">
<path d="M283.733 228.438C292.12 245.032 294.492 267.298 288.667 279.741C282.842 292.185 253.516 320.944 237.809 333.438C191.682 370.129 177.239 387.645 130.044 351.44C82.8485 315.236 38.9931 251.973 53.1692 227.267C53.1692 227.267 64.9761 239.713 112.591 231.739C160.207 223.765 209.221 190.616 223.251 182.052C237.282 173.488 253.161 177.155 262.109 188.926C271.057 200.697 275.347 211.844 283.733 228.438Z" fill="#A78AFE"/>
</g>
<path d="M191.59 281.485C202.484 272.671 207.708 268.936 220.392 266.691" stroke="#222325" stroke-width="8" stroke-linecap="round"/>
<path d="M191.59 281.485C202.484 272.671 207.708 268.936 220.392 266.691" stroke="black" stroke-opacity="0.2" stroke-width="8" stroke-linecap="round"/>
<ellipse rx="8.76213" ry="10.4102" transform="matrix(0.885336 -0.464952 0.464218 0.885721 164.144 256.946)" fill="#222325"/>
<ellipse rx="8.76213" ry="10.4102" transform="matrix(0.885336 -0.464952 0.464218 0.885721 164.144 256.946)" fill="black" fill-opacity="0.2"/>
<ellipse rx="8.57621" ry="9.72492" transform="matrix(0.866438 -0.499285 0.498567 0.866851 203.342 225.466)" fill="#222325"/>
<ellipse rx="8.57621" ry="9.72492" transform="matrix(0.866438 -0.499285 0.498567 0.866851 203.342 225.466)" fill="black" fill-opacity="0.2"/>
<path d="M118.878 142.8C117.973 149.154 118.849 164.727 129.593 176.186" stroke="#222325" stroke-width="8" stroke-linecap="round" stroke-linejoin="round"/>
<path d="M118.878 142.8C117.973 149.154 118.849 164.727 129.593 176.186" stroke="black" stroke-opacity="0.2" stroke-width="8" stroke-linecap="round" stroke-linejoin="round"/>
</g>
<mask id="path-14-outside-2_112_835" maskUnits="userSpaceOnUse" x="164.569" y="337.853" width="79" height="215" fill="black">
<rect fill="white" x="164.569" y="337.853" width="79" height="215"/>
<path fill-rule="evenodd" clip-rule="evenodd" d="M207.067 397.263V456.479H235.569V359.988L207.067 397.263Z"/>
<path d="M232.554 345.853H210.083C208.417 345.853 207.067 347.178 207.067 348.813V397.263L235.569 359.988V348.813C235.569 347.178 234.219 345.853 232.554 345.853Z"/>
<path d="M184.63 544.853H219.488C226.121 544.853 231.816 540.91 234.274 535.282H172.791C173.869 540.735 178.76 544.853 184.63 544.853Z"/>
<path d="M204.052 510.156H194.681C182.469 510.156 172.569 519.875 172.569 531.865V533.012C172.569 533.788 172.645 534.547 172.791 535.282H234.274C235.108 533.374 235.569 531.272 235.569 529.065V524.438V510.156V456.479H207.067V507.196C207.067 508.831 205.718 510.156 204.052 510.156Z"/>
</mask>
<g filter="url(#filter2_i_112_835)">
<path fill-rule="evenodd" clip-rule="evenodd" d="M207.067 397.263V456.479H235.569V359.988L207.067 397.263Z" fill="#A78AFE"/>
<path d="M232.554 345.853H210.083C208.417 345.853 207.067 347.178 207.067 348.813V397.263L235.569 359.988V348.813C235.569 347.178 234.219 345.853 232.554 345.853Z" fill="#222325"/>
<path d="M232.554 345.853H210.083C208.417 345.853 207.067 347.178 207.067 348.813V397.263L235.569 359.988V348.813C235.569 347.178 234.219 345.853 232.554 345.853Z" fill="black" fill-opacity="0.2"/>
<path d="M184.63 544.853H219.488C226.121 544.853 231.816 540.91 234.274 535.282H172.791C173.869 540.735 178.76 544.853 184.63 544.853Z" fill="#FF6D3B"/>
<path d="M204.052 510.156H194.681C182.469 510.156 172.569 519.875 172.569 531.865V533.012C172.569 533.788 172.645 534.547 172.791 535.282H234.274C235.108 533.374 235.569 531.272 235.569 529.065V524.438V510.156V456.479H207.067V507.196C207.067 508.831 205.718 510.156 204.052 510.156Z" fill="white"/>
</g>
<path d="M207.067 460.479H235.569V452.479H207.067V460.479ZM210.245 399.693L238.747 362.417L232.392 357.558L203.89 394.833L210.245 399.693ZM234.274 531.282H172.791V539.282H234.274V531.282ZM234.274 535.282L226.943 532.08L234.274 535.282ZM172.791 535.282L164.943 536.834L172.791 535.282ZM210.083 353.853H232.554V337.853H210.083V353.853ZM194.681 518.156H204.052V502.156H194.681V518.156ZM180.569 531.865C180.569 524.432 186.748 518.156 194.681 518.156V502.156C178.19 502.156 164.569 515.319 164.569 531.865H180.569ZM180.569 533.012V531.865H164.569V533.012H180.569ZM219.488 536.853H184.63V552.853H219.488V536.853ZM227.569 524.438V529.065H243.569V524.438H227.569ZM227.569 510.156V524.438H243.569V510.156H227.569ZM199.067 507.196C199.067 504.274 201.439 502.156 204.052 502.156V518.156C209.996 518.156 215.067 513.387 215.067 507.196H199.067ZM232.554 353.853C229.94 353.853 227.569 351.734 227.569 348.813H243.569C243.569 342.622 238.498 337.853 232.554 337.853V353.853ZM210.083 337.853C204.138 337.853 199.067 342.622 199.067 348.813H215.067C215.067 351.734 212.696 353.853 210.083 353.853V337.853ZM215.067 507.196V456.479H199.067V507.196H215.067ZM227.569 456.479V510.156H243.569V456.479H227.569ZM215.067 456.479V397.263H199.067V456.479H215.067ZM215.067 397.263V348.813H199.067V397.263H215.067ZM227.569 348.813V359.988H243.569V348.813H227.569ZM227.569 359.988V456.479H243.569V359.988H227.569ZM227.569 529.065C227.569 530.147 227.345 531.16 226.943 532.08L241.605 538.484C242.871 535.588 243.569 532.398 243.569 529.065H227.569ZM226.943 532.08C225.739 534.838 222.893 536.853 219.488 536.853V552.853C229.349 552.853 237.893 546.983 241.605 538.484L226.943 532.08ZM184.63 536.853C182.552 536.853 180.971 535.408 180.639 533.73L164.943 536.834C166.768 546.063 174.968 552.853 184.63 552.853V536.853ZM180.639 533.73C180.594 533.503 180.569 533.264 180.569 533.012H164.569C164.569 534.312 164.697 535.591 164.943 536.834L180.639 533.73Z" fill="#222325" mask="url(#path-14-outside-2_112_835)"/>
<path d="M207.067 460.479H235.569V452.479H207.067V460.479ZM210.245 399.693L238.747 362.417L232.392 357.558L203.89 394.833L210.245 399.693ZM234.274 531.282H172.791V539.282H234.274V531.282ZM234.274 535.282L226.943 532.08L234.274 535.282ZM172.791 535.282L164.943 536.834L172.791 535.282ZM210.083 353.853H232.554V337.853H210.083V353.853ZM194.681 518.156H204.052V502.156H194.681V518.156ZM180.569 531.865C180.569 524.432 186.748 518.156 194.681 518.156V502.156C178.19 502.156 164.569 515.319 164.569 531.865H180.569ZM180.569 533.012V531.865H164.569V533.012H180.569ZM219.488 536.853H184.63V552.853H219.488V536.853ZM227.569 524.438V529.065H243.569V524.438H227.569ZM227.569 510.156V524.438H243.569V510.156H227.569ZM199.067 507.196C199.067 504.274 201.439 502.156 204.052 502.156V518.156C209.996 518.156 215.067 513.387 215.067 507.196H199.067ZM232.554 353.853C229.94 353.853 227.569 351.734 227.569 348.813H243.569C243.569 342.622 238.498 337.853 232.554 337.853V353.853ZM210.083 337.853C204.138 337.853 199.067 342.622 199.067 348.813H215.067C215.067 351.734 212.696 353.853 210.083 353.853V337.853ZM215.067 507.196V456.479H199.067V507.196H215.067ZM227.569 456.479V510.156H243.569V456.479H227.569ZM215.067 456.479V397.263H199.067V456.479H215.067ZM215.067 397.263V348.813H199.067V397.263H215.067ZM227.569 348.813V359.988H243.569V348.813H227.569ZM227.569 359.988V456.479H243.569V359.988H227.569ZM227.569 529.065C227.569 530.147 227.345 531.16 226.943 532.08L241.605 538.484C242.871 535.588 243.569 532.398 243.569 529.065H227.569ZM226.943 532.08C225.739 534.838 222.893 536.853 219.488 536.853V552.853C229.349 552.853 237.893 546.983 241.605 538.484L226.943 532.08ZM184.63 536.853C182.552 536.853 180.971 535.408 180.639 533.73L164.943 536.834C166.768 546.063 174.968 552.853 184.63 552.853V536.853ZM180.639 533.73C180.594 533.503 180.569 533.264 180.569 533.012H164.569C164.569 534.312 164.697 535.591 164.943 536.834L180.639 533.73Z" fill="black" fill-opacity="0.2" mask="url(#path-14-outside-2_112_835)"/>
<path d="M222.503 311.879C221.343 284.229 224.593 224.072 251.322 221.284C278.05 218.495 367.125 209.412 416.313 205.927C420.49 218.242 427.589 256.672 422.578 311.879L280.367 313.364C264.957 335.051 227.66 377.68 201.748 374.702C175.835 371.724 204.788 331.579 222.503 311.879Z" fill="#FABF48"/>
<path d="M169.55 7.24771C182.044 4.48685 206.225 2.15074 202.996 14.8932C199.767 27.6356 179.353 15.1055 169.55 7.24771Z" fill="#22285D"/>
<path d="M169.55 7.24771C160.9 18.9283 146.945 42.9265 160.324 45.475C173.702 48.0235 172.049 21.052 169.55 7.24771Z" fill="#22285D"/>
<path d="M256.282 258.124C225.912 256.001 199.105 157.111 231.502 59.3537C239.525 35.143 264.169 40.5294 264.169 59.3537C264.169 78.1779 202.353 131.486 198.317 45.475M169.55 7.24771C160.9 18.9283 146.945 42.9265 160.324 45.475C173.702 48.0235 172.049 21.052 169.55 7.24771ZM169.55 7.24771C182.044 4.48685 206.225 2.15074 202.996 14.8932C199.767 27.6356 179.353 15.1055 169.55 7.24771Z" stroke="#222325" stroke-width="8" stroke-linecap="round" stroke-linejoin="round"/>
<path d="M256.282 258.124C225.912 256.001 199.105 157.111 231.502 59.3537C239.525 35.143 264.169 40.5294 264.169 59.3537C264.169 78.1779 202.353 131.486 198.317 45.475M169.55 7.24771C160.9 18.9283 146.945 42.9265 160.324 45.475C173.702 48.0235 172.049 21.052 169.55 7.24771ZM169.55 7.24771C182.044 4.48685 206.225 2.15074 202.996 14.8932C199.767 27.6356 179.353 15.1055 169.55 7.24771Z" stroke="black" stroke-opacity="0.2" stroke-width="8" stroke-linecap="round" stroke-linejoin="round"/>
<path d="M228.92 307.273H268.517" stroke="#222325" stroke-width="8" stroke-linecap="round" stroke-linejoin="round"/>
<path d="M228.92 307.273H268.517" stroke="black" stroke-opacity="0.2" stroke-width="8" stroke-linecap="round" stroke-linejoin="round"/>
<path d="M248.719 228.801C258.689 222.451 278.492 229.617 277.948 309.079" stroke="#222325" stroke-width="8" stroke-linecap="round" stroke-linejoin="round"/>
<path d="M248.719 228.801C258.689 222.451 278.492 229.617 277.948 309.079" stroke="black" stroke-opacity="0.2" stroke-width="8" stroke-linecap="round" stroke-linejoin="round"/>
<ellipse cx="311.256" cy="249.187" rx="12.374" ry="12.3844" fill="#222325"/>
<ellipse cx="311.256" cy="249.187" rx="12.374" ry="12.3844" fill="black" fill-opacity="0.2"/>
<path d="M336.587 186.853C320.733 186.853 280.569 191.654 280.569 191.654L291.667 214.592L370.485 206.851C370.485 236.923 395.788 234.429 401.243 222.645C406.699 210.861 407.908 197.668 399.474 191.654C392.742 186.852 374.948 186.852 337.22 186.853L336.587 186.853Z" fill="#A78AFE"/>
<path d="M363.01 196.988C362.964 197.892 359.311 204.99 370.485 206.851M370.485 206.851L291.667 214.592L280.569 191.654C280.569 191.654 320.733 186.853 336.587 186.853C374.749 186.853 392.704 186.826 399.474 191.654C407.908 197.668 406.699 210.861 401.243 222.645C395.788 234.429 370.485 236.923 370.485 206.851Z" stroke="#222325" stroke-width="8" stroke-linecap="round" stroke-linejoin="round"/>
<path d="M363.01 196.988C362.964 197.892 359.311 204.99 370.485 206.851M370.485 206.851L291.667 214.592L280.569 191.654C280.569 191.654 320.733 186.853 336.587 186.853C374.749 186.853 392.704 186.826 399.474 191.654C407.908 197.668 406.699 210.861 401.243 222.645C395.788 234.429 370.485 236.923 370.485 206.851Z" stroke="black" stroke-opacity="0.2" stroke-width="8" stroke-linecap="round" stroke-linejoin="round"/>
<g filter="url(#filter3_i_112_835)">
<path d="M151.569 429.352C118.89 427.372 90.2023 374.904 97.2175 321.377C97.678 317.864 99.8084 314.655 103.25 313.819C117.608 310.333 139.663 320.029 136.569 351.857C136.569 351.857 142.691 373.177 159.185 388.475C166.868 378.231 177.111 351.857 177.111 351.857C181.209 331.111 215.012 329.5 210.915 359.793C206.817 390.086 185.373 431.401 151.569 429.352Z" fill="#A78AFE"/>
</g>
<path d="M148.837 398.274C155.039 394.28 159.185 388.475 159.185 388.475M159.185 388.475C166.868 378.231 177.111 351.857 177.111 351.857C181.209 331.111 215.012 329.5 210.915 359.793C206.817 390.086 185.373 431.401 151.569 429.352C118.89 427.372 90.2023 374.904 97.2175 321.377C97.678 317.864 99.8084 314.655 103.25 313.819C117.608 310.333 139.663 320.029 136.569 351.857C136.569 351.857 142.691 373.177 159.185 388.475Z" stroke="#222325" stroke-width="8" stroke-linecap="round" stroke-linejoin="round"/>
<path d="M148.837 398.274C155.039 394.28 159.185 388.475 159.185 388.475M159.185 388.475C166.868 378.231 177.111 351.857 177.111 351.857C181.209 331.111 215.012 329.5 210.915 359.793C206.817 390.086 185.373 431.401 151.569 429.352C118.89 427.372 90.2023 374.904 97.2175 321.377C97.678 317.864 99.8084 314.655 103.25 313.819C117.608 310.333 139.663 320.029 136.569 351.857C136.569 351.857 142.691 373.177 159.185 388.475Z" stroke="black" stroke-opacity="0.2" stroke-width="8" stroke-linecap="round" stroke-linejoin="round"/>
<path d="M362.68 208.448L287.569 217.309L289.162 229.392L373.569 231.853C369.744 224.779 368.658 218.001 368.164 212.918C367.893 210.137 365.455 208.121 362.68 208.448Z" fill="#FABF48"/>
<path d="M317.575 315.145H289.569L294.351 548.853H317.575V315.145Z" fill="#222325"/>
<path d="M317.575 315.145H289.569L294.351 548.853H317.575V315.145Z" fill="black" fill-opacity="0.2"/>
<path d="M343.569 133.853H304.634L305.735 155.613H343.569V133.853Z" fill="#222325"/>
<path d="M343.569 133.853H304.634L305.735 155.613H343.569V133.853Z" fill="black" fill-opacity="0.2"/>
<path d="M310.517 245.762L305.735 155.613M305.735 155.613L304.634 133.853H343.569V155.613H305.735ZM289.569 315.145H317.575V548.853H294.351L289.569 315.145Z" stroke="#222325" stroke-width="8" stroke-linecap="round" stroke-linejoin="round"/>
<path d="M310.517 245.762L305.735 155.613M305.735 155.613L304.634 133.853H343.569V155.613H305.735ZM289.569 315.145H317.575V548.853H294.351L289.569 315.145Z" stroke="black" stroke-opacity="0.2" stroke-width="8" stroke-linecap="round" stroke-linejoin="round"/>
<line x1="149.569" y1="548.853" x2="414.569" y2="548.853" stroke="#222325" stroke-width="8" stroke-linecap="round"/>
<line x1="149.569" y1="548.853" x2="414.569" y2="548.853" stroke="black" stroke-opacity="0.2" stroke-width="8" stroke-linecap="round"/>
<path d="M212.699 509.296C221.098 510.938 226.673 515.151 226.673 515.151" stroke="#222325" stroke-width="8" stroke-linecap="round"/>
<path d="M212.699 509.296C221.098 510.938 226.673 515.151 226.673 515.151" stroke="black" stroke-opacity="0.2" stroke-width="8" stroke-linecap="round"/>
<line x1="209.069" y1="454.775" x2="233.944" y2="454.775" stroke="#222325" stroke-width="8" stroke-linecap="round"/>
<line x1="209.069" y1="454.775" x2="233.944" y2="454.775" stroke="black" stroke-opacity="0.2" stroke-width="8" stroke-linecap="round"/>
<line x1="171.959" y1="534.336" x2="236.456" y2="534.336" stroke="#222325" stroke-width="8" stroke-linecap="round"/>
<line x1="171.959" y1="534.336" x2="236.456" y2="534.336" stroke="black" stroke-opacity="0.2" stroke-width="8" stroke-linecap="round"/>
<defs>
<filter id="filter0_i_112_835" x="225.36" y="286.041" width="212.602" height="141.938" filterUnits="userSpaceOnUse" color-interpolation-filters="sRGB">
<feFlood flood-opacity="0" result="BackgroundImageFix"/>
<feBlend mode="normal" in="SourceGraphic" in2="BackgroundImageFix" result="shape"/>
<feColorMatrix in="SourceAlpha" type="matrix" values="0 0 0 0 0 0 0 0 0 0 0 0 0 0 0 0 0 0 127 0" result="hardAlpha"/>
<feOffset dx="-5" dy="-17"/>
<feGaussianBlur stdDeviation="1.5"/>
<feComposite in2="hardAlpha" operator="arithmetic" k2="-1" k3="1"/>
<feColorMatrix type="matrix" values="0 0 0 0 0.141667 0 0 0 0 0.170204 0 0 0 0 0.425 0 0 0 0.34 0"/>
<feBlend mode="darken" in2="shape" result="effect1_innerShadow_112_835"/>
</filter>
<filter id="filter1_i_112_835" x="50.4625" y="175.36" width="242.415" height="195.98" filterUnits="userSpaceOnUse" color-interpolation-filters="sRGB">
<feFlood flood-opacity="0" result="BackgroundImageFix"/>
<feBlend mode="normal" in="SourceGraphic" in2="BackgroundImageFix" result="shape"/>
<feColorMatrix in="SourceAlpha" type="matrix" values="0 0 0 0 0 0 0 0 0 0 0 0 0 0 0 0 0 0 127 0" result="hardAlpha"/>
<feOffset dx="1" dy="-12"/>
<feGaussianBlur stdDeviation="1"/>
<feComposite in2="hardAlpha" operator="arithmetic" k2="-1" k3="1"/>
<feColorMatrix type="matrix" values="0 0 0 0 0.321569 0 0 0 0 0.376471 0 0 0 0 0.866667 0 0 0 0.6 0"/>
<feBlend mode="normal" in2="shape" result="effect1_innerShadow_112_835"/>
</filter>
<filter id="filter2_i_112_835" x="161.569" y="334.853" width="82" height="218" filterUnits="userSpaceOnUse" color-interpolation-filters="sRGB">
<feFlood flood-opacity="0" result="BackgroundImageFix"/>
<feBlend mode="normal" in="SourceGraphic" in2="BackgroundImageFix" result="shape"/>
<feColorMatrix in="SourceAlpha" type="matrix" values="0 0 0 0 0 0 0 0 0 0 0 0 0 0 0 0 0 0 127 0" result="hardAlpha"/>
<feOffset dx="-11" dy="-17"/>
<feGaussianBlur stdDeviation="1.5"/>
<feComposite in2="hardAlpha" operator="arithmetic" k2="-1" k3="1"/>
<feColorMatrix type="matrix" values="0 0 0 0 0.141667 0 0 0 0 0.170204 0 0 0 0 0.425 0 0 0 0.34 0"/>
<feBlend mode="darken" in2="shape" result="effect1_innerShadow_112_835"/>
</filter>
<filter id="filter3_i_112_835" x="89.1525" y="306.147" width="126.104" height="127.28" filterUnits="userSpaceOnUse" color-interpolation-filters="sRGB">
<feFlood flood-opacity="0" result="BackgroundImageFix"/>
<feBlend mode="normal" in="SourceGraphic" in2="BackgroundImageFix" result="shape"/>
<feColorMatrix in="SourceAlpha" type="matrix" values="0 0 0 0 0 0 0 0 0 0 0 0 0 0 0 0 0 0 127 0" result="hardAlpha"/>
<feOffset dx="-5" dy="-17"/>
<feGaussianBlur stdDeviation="1.5"/>
<feComposite in2="hardAlpha" operator="arithmetic" k2="-1" k3="1"/>
<feColorMatrix type="matrix" values="0 0 0 0 0.321569 0 0 0 0 0.376471 0 0 0 0 0.866667 0 0 0 0.6 0"/>
<feBlend mode="normal" in2="shape" result="effect1_innerShadow_112_835"/>
</filter>
</defs>
</svg>
