<svg width="1920" height="1240" viewBox="0 0 1920 1240" fill="none" xmlns="http://www.w3.org/2000/svg">
<g clip-path="url(#clip0_110_88)">
<rect width="1920" height="1240" fill="white"/>
<g opacity="0.65">
<g filter="url(#filter0_d_110_88)">
<path fill-rule="evenodd" clip-rule="evenodd" d="M55.0688 148.125C55.0722 95.5888 97.6639 53.0028 150.2 53.0063V53.0063C202.736 53.0098 245.322 95.6015 245.319 148.138L245.316 187.545C245.314 213.134 255.478 237.676 273.571 255.772V255.772C291.665 273.868 316.205 284.035 341.795 284.037L381.202 284.039C433.738 284.043 476.324 326.634 476.321 379.17V379.17C476.317 431.706 433.726 474.292 381.19 474.289V474.289C328.654 474.285 286.068 431.694 286.071 379.158L286.074 339.751C286.075 314.161 275.912 289.619 257.818 271.523V271.523C239.725 253.427 215.184 243.26 189.594 243.259L150.187 243.256C97.6514 243.253 55.0653 200.661 55.0688 148.125V148.125Z" fill="#C0C0C0"/>
</g>
<g filter="url(#filter1_d_110_88)">
<path fill-rule="evenodd" clip-rule="evenodd" d="M55.0381 610.16C55.0347 662.696 97.6207 705.288 150.157 705.291V705.291C202.693 705.295 245.284 662.709 245.288 610.173L245.291 570.765C245.292 545.176 255.459 520.635 273.555 502.542V502.542C291.651 484.448 316.193 474.285 341.782 474.286L381.19 474.289C433.726 474.292 476.317 431.706 476.321 379.17V379.17C476.324 326.634 433.738 284.043 381.202 284.039V284.039C328.666 284.036 286.075 326.622 286.071 379.158L286.068 418.565C286.067 444.155 275.9 468.695 257.804 486.789V486.789C239.708 504.882 215.166 515.046 189.577 515.044L150.169 515.041C97.6333 515.038 55.0416 557.624 55.0381 610.16V610.16Z" fill="#C0C0C0"/>
</g>
<path fill-rule="evenodd" clip-rule="evenodd" d="M286.056 610.175C286.052 662.711 328.638 705.303 381.174 705.307V705.307C433.71 705.31 476.302 662.724 476.306 610.188L476.308 570.781C476.31 545.191 486.477 520.65 504.573 502.557V502.557C522.668 484.464 547.21 474.3 572.8 474.302L612.207 474.304C664.743 474.308 707.335 431.722 707.338 379.186V379.186C707.342 326.65 664.756 284.058 612.22 284.054V284.054C559.684 284.051 517.092 326.637 517.089 379.173L517.086 418.58C517.084 444.17 506.917 468.711 488.821 486.804V486.804C470.726 504.897 446.183 515.061 420.594 515.059L381.187 515.057C328.651 515.053 286.059 557.639 286.056 610.175V610.175Z" fill="#A78AFE"/>
<g filter="url(#filter2_d_110_88)">
<path fill-rule="evenodd" clip-rule="evenodd" d="M517.073 610.191C517.07 662.727 559.656 705.318 612.192 705.322V705.322C664.728 705.325 707.32 662.739 707.323 610.203L707.326 570.796C707.327 545.206 717.494 520.666 735.59 502.572V502.572C753.686 484.479 778.228 474.316 803.817 474.317L843.225 474.32C895.761 474.323 938.353 431.737 938.356 379.201V379.201C938.36 326.665 895.774 284.074 843.237 284.07V284.07C790.701 284.067 748.11 326.653 748.106 379.189L748.104 418.595C748.102 444.185 737.935 468.726 719.839 486.819V486.819C701.743 504.913 677.201 515.077 651.611 515.075L612.205 515.072C559.669 515.069 517.077 557.655 517.073 610.191V610.191Z" fill="#C0C0C0"/>
</g>
<g filter="url(#filter3_d_110_88)">
<path fill-rule="evenodd" clip-rule="evenodd" d="M55.0381 610.16C55.0416 557.624 97.6333 515.038 150.169 515.041V515.041C202.705 515.045 245.291 557.637 245.288 610.173L245.285 649.58C245.284 675.17 255.447 699.712 273.541 717.807V717.807C291.634 735.903 316.175 746.07 341.764 746.072L381.172 746.074C433.708 746.078 476.294 788.67 476.29 841.206V841.206C476.287 893.742 433.695 936.328 381.159 936.324V936.324C328.623 936.321 286.037 893.729 286.04 841.193L286.043 801.786C286.045 776.196 275.881 751.654 257.788 733.558V733.558C239.694 715.463 215.153 705.296 189.564 705.294L150.157 705.291C97.6207 705.288 55.0346 662.696 55.0381 610.16V610.16Z" fill="#C0C0C0"/>
</g>
<g filter="url(#filter4_d_110_88)">
<path fill-rule="evenodd" clip-rule="evenodd" d="M55.0075 1072.2C55.004 1124.73 97.59 1167.32 150.126 1167.33V1167.33C202.662 1167.33 245.254 1124.74 245.257 1072.21L245.26 1032.8C245.262 1007.21 255.429 982.671 273.524 964.577V964.577C291.62 946.484 316.162 936.32 341.752 936.322L381.159 936.324C433.695 936.328 476.287 893.742 476.29 841.206V841.206C476.294 788.67 433.708 746.078 381.172 746.075V746.075C328.636 746.071 286.044 788.657 286.04 841.193L286.038 880.6C286.036 906.19 275.869 930.731 257.773 948.824V948.824C239.678 966.917 215.135 977.081 189.546 977.079L150.139 977.077C97.6027 977.073 55.011 1019.66 55.0075 1072.2V1072.2Z" fill="#C0C0C0"/>
</g>
<path fill-rule="evenodd" clip-rule="evenodd" d="M286.025 1072.21C286.022 1124.75 328.608 1167.34 381.144 1167.34V1167.34C433.68 1167.35 476.271 1124.76 476.275 1072.22L476.277 1032.82C476.279 1007.23 486.446 982.686 504.542 964.592V964.592C522.638 946.499 547.18 936.335 572.769 936.337L612.177 936.34C664.713 936.343 707.304 893.757 707.308 841.221V841.221C707.311 788.685 664.725 746.093 612.189 746.09V746.09C559.653 746.086 517.061 788.672 517.058 841.208L517.055 880.616C517.054 906.205 506.887 930.746 488.791 948.839V948.839C470.695 966.933 446.153 977.096 420.564 977.095L381.156 977.092C328.62 977.088 286.029 1019.67 286.025 1072.21V1072.21Z" fill="#A78AFE"/>
<g filter="url(#filter5_d_110_88)">
<path fill-rule="evenodd" clip-rule="evenodd" d="M517.043 1072.23C517.039 1124.76 559.625 1167.35 612.161 1167.36V1167.36C664.697 1167.36 707.289 1124.77 707.292 1072.24L707.295 1032.83C707.297 1007.24 717.464 982.701 735.56 964.608V964.608C753.655 946.514 778.197 936.35 803.787 936.352L843.194 936.355C895.73 936.358 938.322 893.772 938.325 841.236V841.236C938.329 788.7 895.743 746.108 843.207 746.105V746.105C790.671 746.102 748.079 788.688 748.076 841.224L748.073 880.631C748.071 906.22 737.904 930.761 719.809 948.854V948.854C701.713 966.948 677.171 977.111 651.581 977.11L612.174 977.107C559.638 977.104 517.046 1019.69 517.043 1072.23V1072.23Z" fill="#C0C0C0"/>
</g>
<path fill-rule="evenodd" clip-rule="evenodd" d="M286.086 148.14C286.09 95.6042 328.682 53.0182 381.218 53.0217V53.0217C433.754 53.0252 476.34 95.6168 476.336 148.153L476.334 187.56C476.332 213.15 486.496 237.692 504.589 255.788V255.788C522.682 273.883 547.223 284.05 572.812 284.052L612.22 284.055C664.756 284.058 707.342 326.65 707.338 379.186V379.186C707.335 431.722 664.743 474.308 612.207 474.304V474.304C559.671 474.301 517.085 431.709 517.089 379.173L517.091 339.766C517.093 314.177 506.929 289.634 488.836 271.539V271.539C470.742 253.443 446.202 243.276 420.612 243.274L381.205 243.271C328.669 243.268 286.083 200.676 286.086 148.14V148.14Z" fill="#A78AFE"/>
<path fill-rule="evenodd" clip-rule="evenodd" d="M286.056 610.175C286.059 557.639 328.651 515.053 381.187 515.057V515.057C433.723 515.06 476.309 557.652 476.305 610.188L476.303 649.595C476.301 675.185 486.465 699.727 504.558 717.823V717.823C522.652 735.918 547.192 746.085 572.782 746.087L612.189 746.09C664.725 746.093 707.311 788.685 707.308 841.221V841.221C707.304 893.757 664.713 936.343 612.177 936.339V936.339C559.641 936.336 517.054 893.744 517.058 841.208L517.061 801.801C517.062 776.212 506.898 751.669 488.805 733.574V733.574C470.712 715.478 446.171 705.311 420.581 705.309L381.174 705.306C328.638 705.303 286.052 662.711 286.056 610.175V610.175Z" fill="#A78AFE"/>
<g filter="url(#filter6_d_110_88)">
<path fill-rule="evenodd" clip-rule="evenodd" d="M517.104 148.155C517.107 95.6194 559.699 53.0333 612.235 53.0368V53.0368C664.771 53.0403 707.357 95.632 707.354 148.168L707.351 187.576C707.349 213.165 717.513 237.707 735.606 255.803V255.803C753.7 273.898 778.241 284.065 803.83 284.067L843.237 284.07C895.773 284.073 938.359 326.665 938.356 379.201V379.201C938.352 431.737 895.761 474.323 843.225 474.32V474.32C790.689 474.316 748.103 431.724 748.106 379.188L748.109 339.781C748.11 314.192 737.947 289.65 719.853 271.554V271.554C701.76 253.458 677.219 243.291 651.629 243.289L612.223 243.287C559.687 243.283 517.1 200.691 517.104 148.155V148.155Z" fill="#C0C0C0"/>
</g>
<g filter="url(#filter7_d_110_88)">
<path fill-rule="evenodd" clip-rule="evenodd" d="M517.073 610.191C517.077 557.655 559.668 515.069 612.205 515.072V515.072C664.741 515.076 707.327 557.667 707.323 610.204L707.32 649.611C707.319 675.2 717.483 699.742 735.576 717.838V717.838C753.669 735.934 778.21 746.101 803.799 746.102L843.207 746.105C895.743 746.108 938.329 788.7 938.325 841.236V841.236C938.322 893.772 895.73 936.358 843.194 936.355V936.355C790.658 936.351 748.072 893.76 748.076 841.224L748.078 801.816C748.08 776.227 737.916 751.685 719.823 733.589V733.589C701.729 715.493 677.189 705.326 651.599 705.325L612.192 705.322C559.656 705.319 517.07 662.727 517.073 610.191V610.191Z" fill="#C0C0C0"/>
</g>
<path d="M55.0568 328.571C55.0584 303.965 75.0071 284.019 99.6134 284.021L218.423 284.028C243.029 284.03 262.975 303.979 262.974 328.585L262.966 447.395C262.964 472.001 243.015 491.947 218.409 491.945L99.5995 491.937C74.9932 491.936 55.0473 471.987 55.0489 447.381L55.0568 328.571Z" fill="#A78AFD"/>
<g clip-path="url(#clip1_110_88)">
<ellipse cx="159.011" cy="387.983" rx="10.2102" ry="26.9178" stroke="white" stroke-width="5.5692"/>
<path d="M132.093 387.981L185.929 387.985" stroke="white" stroke-width="5.5692" stroke-linecap="round" stroke-linejoin="round"/>
<circle cx="159.011" cy="387.983" r="26.9178" stroke="white" stroke-width="5.5692"/>
</g>
<rect x="55.0291" y="746.053" width="207.917" height="207.917" rx="44.5536" fill="#A78AFD"/>
<rect x="150.628" y="824.957" width="16.7076" height="25.9896" rx="8.3538" stroke="white" stroke-width="5.5692"/>
<path d="M176.132 849.698C174.726 853.09 172.347 855.989 169.294 858.029C166.241 860.069 162.651 861.157 158.98 861.157C155.308 861.157 151.719 860.068 148.666 858.028C145.614 855.987 143.235 853.088 141.83 849.696" stroke="white" stroke-width="5.5692" stroke-linecap="round" stroke-linejoin="round"/>
<path d="M158.98 861.157L158.979 875.08M158.979 875.08L167.333 875.08M158.979 875.08L150.625 875.079" stroke="white" stroke-width="5.5692" stroke-linecap="round" stroke-linejoin="round"/>
<g filter="url(#filter8_d_110_88)">
<rect x="55.0444" y="515.035" width="207.917" height="207.917" rx="44.5536" fill="#C0C0C0" shape-rendering="crispEdges"/>
<path d="M160.87 639.44C157.911 642.399 153.897 644.062 149.712 644.061C145.527 644.061 141.514 642.398 138.555 639.439C135.596 636.479 133.934 632.466 133.934 628.281C133.934 624.096 135.597 620.082 138.556 617.123" stroke="white" stroke-width="5.5692" stroke-linecap="round"/>
<path d="M151.552 604.13C154.511 601.171 158.525 599.508 162.71 599.509C166.895 599.509 170.908 601.172 173.867 604.131C176.826 607.091 178.489 611.104 178.488 615.289C178.488 619.474 176.825 623.488 173.866 626.447" stroke="white" stroke-width="5.5692" stroke-linecap="round"/>
<path d="M162.709 615.288L149.713 628.282" stroke="white" stroke-width="5.5692" stroke-linecap="round"/>
</g>
<g filter="url(#filter9_d_110_88)">
<rect x="55.0138" y="977.07" width="207.917" height="207.917" rx="44.5536" fill="#C0C0C0" shape-rendering="crispEdges"/>
<path d="M160.84 1101.48C157.88 1104.43 153.867 1106.1 149.682 1106.1C145.497 1106.1 141.483 1104.43 138.524 1101.47C135.565 1098.51 133.903 1094.5 133.903 1090.32C133.904 1086.13 135.566 1082.12 138.526 1079.16" stroke="white" stroke-width="5.5692" stroke-linecap="round"/>
<path d="M151.521 1066.16C154.481 1063.21 158.494 1061.54 162.679 1061.54C166.864 1061.54 170.878 1063.21 173.837 1066.17C176.796 1069.13 178.458 1073.14 178.458 1077.32C178.457 1081.51 176.795 1085.52 173.835 1088.48" stroke="white" stroke-width="5.5692" stroke-linecap="round"/>
<path d="M162.678 1077.32L149.683 1090.32" stroke="white" stroke-width="5.5692" stroke-linecap="round"/>
</g>
<rect x="286.093" y="53.0154" width="207.917" height="207.917" rx="44.5536" fill="#A78AFE"/>
<path d="M384.478 156.796C384.454 157.527 384.574 158.256 384.831 158.94C385.088 159.625 385.478 160.252 385.978 160.786C386.478 161.32 387.078 161.75 387.744 162.053C388.41 162.355 389.129 162.523 389.86 162.547C390.591 162.571 391.319 162.451 392.004 162.194C392.688 161.936 393.316 161.547 393.85 161.047C394.384 160.547 394.814 159.947 395.116 159.281C395.418 158.615 395.586 157.896 395.61 157.165C395.634 156.434 395.515 155.706 395.257 155.021C395 154.337 394.61 153.709 394.11 153.175C393.611 152.641 393.011 152.211 392.345 151.909C391.679 151.607 390.96 151.439 390.229 151.415C389.498 151.39 388.769 151.51 388.085 151.768C387.4 152.025 386.773 152.415 386.239 152.914C385.705 153.414 385.274 154.014 384.972 154.68C384.67 155.346 384.502 156.065 384.478 156.796Z" stroke="white" stroke-width="5.5692" stroke-linecap="round" stroke-linejoin="round"/>
<path d="M386.206 132.382C388.567 130.956 391.525 130.956 393.886 132.383L408.736 141.357C410.962 142.701 412.322 145.112 412.322 147.712L412.32 166.252C412.32 168.852 410.96 171.263 408.734 172.607L393.882 181.579C391.521 183.005 388.564 183.005 386.203 181.578L371.352 172.605C369.126 171.26 367.767 168.849 367.767 166.249L367.768 147.709C367.768 145.109 369.128 142.699 371.354 141.354L386.206 132.382Z" stroke="white" stroke-width="5.5692" stroke-linejoin="round"/>
<g filter="url(#filter10_d_110_88)">
<rect x="286.077" y="284.033" width="207.917" height="207.917" rx="44.5536" fill="#C0C0C0" shape-rendering="crispEdges"/>
<path d="M364.968 379.996C364.968 375.7 368.293 372.218 372.394 372.218L407.666 372.22C411.767 372.22 415.091 375.703 415.091 380L415.089 405.282C415.089 409.579 411.764 413.061 407.663 413.061L372.391 413.059C368.29 413.058 364.966 409.575 364.966 405.279L364.968 379.996Z" stroke="white" stroke-width="5.5692"/>
<path d="M384.462 392.455C384.438 393.186 384.558 393.914 384.816 394.599C385.073 395.284 385.463 395.911 385.962 396.445C386.462 396.979 387.062 397.409 387.728 397.711C388.394 398.013 389.113 398.181 389.844 398.206C390.575 398.23 391.304 398.11 391.988 397.852C392.673 397.595 393.3 397.205 393.834 396.706C394.368 396.206 394.798 395.606 395.1 394.94C395.403 394.274 395.57 393.555 395.595 392.824C395.619 392.093 395.499 391.364 395.242 390.68C394.984 389.995 394.595 389.368 394.095 388.834C393.595 388.3 392.995 387.87 392.329 387.568C391.663 387.265 390.944 387.097 390.213 387.073C389.482 387.049 388.754 387.169 388.069 387.426C387.384 387.684 386.757 388.073 386.223 388.573C385.689 389.073 385.259 389.673 384.957 390.339C384.655 391.005 384.487 391.724 384.462 392.455Z" stroke="white" stroke-width="5.5692" stroke-linecap="round" stroke-linejoin="round"/>
<path d="M383.533 365.721C385.071 365.721 386.318 364.475 386.318 362.937C386.318 361.399 385.071 360.152 383.533 360.152L383.533 365.721ZM370.538 360.151C369.001 360.151 367.754 361.398 367.754 362.936C367.754 364.473 369 365.72 370.538 365.72L370.538 360.151ZM383.533 360.152L370.538 360.151L370.538 365.72L383.533 365.721L383.533 360.152Z" fill="white"/>
</g>
<g filter="url(#filter11_d_110_88)">
<rect x="286.047" y="746.068" width="207.917" height="207.917" rx="44.5536" fill="#C0C0C0" shape-rendering="crispEdges"/>
<path d="M377.932 845.392L376.551 842.974C375.683 843.47 375.148 844.392 375.148 845.392L377.932 845.392ZM395.567 862.101L395.567 864.885C396.681 864.885 397.687 864.221 398.126 863.198L395.567 862.101ZM409.492 858.325L409.315 861.104L409.492 858.325ZM397.473 857.655L394.913 856.558L397.473 857.655ZM400.352 856.582L399.373 859.189L400.352 856.582ZM383.539 839.907L380.948 840.927L383.539 839.907ZM362.153 832.396C362.152 846.397 366.266 857.852 374.221 865.809C382.177 873.765 393.631 877.88 407.632 877.881L407.633 872.312C394.715 872.311 384.822 868.534 378.159 861.871C371.497 855.207 367.722 845.313 367.723 832.396L362.153 832.396ZM414.13 871.384L414.131 860.245L408.562 860.245L408.561 871.383L414.13 871.384ZM375.148 845.392C375.147 850.482 377.667 855.345 381.336 858.883C385.017 862.433 390.094 864.885 395.567 864.885L395.567 859.316C391.758 859.316 388.017 857.59 385.202 854.874C382.373 852.146 380.717 848.656 380.717 845.392L375.148 845.392ZM379.314 847.81L384.084 845.084L381.322 840.248L376.551 842.974L379.314 847.81ZM398.126 863.198L400.032 858.752L394.913 856.558L393.008 861.004L398.126 863.198ZM386.13 838.887C385.249 836.65 384.669 833.19 384.489 830.362L378.931 830.716C379.129 833.821 379.767 837.929 380.948 840.927L386.13 838.887ZM379.79 825.9L368.651 825.899L368.651 831.468L379.79 831.469L379.79 825.9ZM399.373 859.189C402.335 860.301 406.29 860.911 409.315 861.104L409.669 855.546C406.93 855.371 403.579 854.819 401.33 853.975L399.373 859.189ZM384.489 830.362C384.337 827.975 382.385 825.9 379.79 825.9L379.79 831.469C379.245 831.469 378.952 831.056 378.931 830.716L384.489 830.362ZM414.131 860.245C414.131 857.65 412.056 855.698 409.669 855.546L409.315 861.104C408.974 861.082 408.561 860.789 408.562 860.245L414.131 860.245ZM400.032 858.752C399.91 859.037 399.696 859.158 399.603 859.191C399.524 859.219 399.455 859.22 399.373 859.189L401.33 853.975C399.169 853.164 396.082 853.83 394.913 856.558L400.032 858.752ZM407.632 877.881C411.221 877.881 414.13 874.972 414.13 871.384L408.561 871.383C408.561 871.896 408.145 872.312 407.633 872.312L407.632 877.881ZM384.084 845.084C386.472 843.72 386.916 840.884 386.13 838.887L380.948 840.927C380.922 840.861 380.915 840.791 380.94 840.701C380.97 840.595 381.073 840.39 381.322 840.248L384.084 845.084ZM367.723 832.396C367.723 831.884 368.138 831.468 368.651 831.468L368.651 825.899C365.063 825.899 362.154 828.808 362.153 832.396L367.723 832.396Z" fill="white"/>
</g>
<rect x="286.062" y="515.05" width="207.917" height="207.917" rx="44.5536" fill="#A78AFE"/>
<path d="M415.075 616.233L415.076 606.468C415.076 602.634 411.968 599.525 408.133 599.525L391.871 599.524L371.896 599.522C368.062 599.522 364.953 602.63 364.953 606.465L364.951 631.563C364.951 635.398 368.059 638.506 371.894 638.507L390.94 638.508" stroke="white" stroke-width="5.5692" stroke-linecap="round" stroke-linejoin="round"/>
<path d="M367.738 602.307L385.722 615.047C388.293 616.869 391.734 616.869 394.306 615.048L412.291 602.31" stroke="white" stroke-width="5.5692" stroke-linecap="round" stroke-linejoin="round"/>
<path d="M415.889 643.263C416.976 644.351 418.739 644.351 419.827 643.264C420.914 642.176 420.915 640.413 419.827 639.326L415.889 643.263ZM408.689 628.186C407.602 627.099 405.839 627.099 404.751 628.186C403.664 629.274 403.664 631.037 404.751 632.124L408.689 628.186ZM419.827 639.326L408.689 628.186L404.751 632.124L415.889 643.263L419.827 639.326Z" fill="white"/>
<path d="M404.751 639.325C403.663 640.412 403.663 642.175 404.75 643.263C405.838 644.35 407.601 644.35 408.688 643.263L404.751 639.325ZM419.828 632.125C420.915 631.038 420.915 629.275 419.828 628.187C418.74 627.1 416.977 627.099 415.89 628.187L419.828 632.125ZM408.688 643.263L419.828 632.125L415.89 628.187L404.751 639.325L408.688 643.263Z" fill="white"/>
<rect x="286.031" y="977.086" width="207.917" height="207.917" rx="44.5536" fill="#A78AFE"/>
<path d="M415.044 1078.27L415.045 1068.5C415.045 1064.67 411.937 1061.56 408.103 1061.56L391.841 1061.56L371.866 1061.56C368.031 1061.56 364.923 1064.67 364.922 1068.5L364.921 1093.6C364.92 1097.43 368.029 1100.54 371.863 1100.54L390.91 1100.54" stroke="white" stroke-width="5.5692" stroke-linecap="round" stroke-linejoin="round"/>
<path d="M367.707 1064.34L385.691 1077.08C388.262 1078.9 391.704 1078.9 394.275 1077.08L412.261 1064.34" stroke="white" stroke-width="5.5692" stroke-linecap="round" stroke-linejoin="round"/>
<path d="M415.858 1105.3C416.946 1106.39 418.709 1106.39 419.796 1105.3C420.884 1104.21 420.884 1102.45 419.797 1101.36L415.858 1105.3ZM408.659 1090.22C407.571 1089.13 405.808 1089.13 404.721 1090.22C403.633 1091.31 403.633 1093.07 404.721 1094.16L408.659 1090.22ZM419.797 1101.36L408.659 1090.22L404.721 1094.16L415.858 1105.3L419.797 1101.36Z" fill="white"/>
<path d="M404.72 1101.36C403.633 1102.45 403.632 1104.21 404.72 1105.3C405.807 1106.39 407.57 1106.39 408.658 1105.3L404.72 1101.36ZM419.797 1094.16C420.885 1093.07 420.885 1091.31 419.797 1090.22C418.71 1089.14 416.947 1089.14 415.859 1090.22L419.797 1094.16ZM408.658 1105.3L419.797 1094.16L415.859 1090.22L404.72 1101.36L408.658 1105.3Z" fill="white"/>
<g filter="url(#filter12_d_110_88)">
<rect x="517.11" y="53.0305" width="207.917" height="207.917" rx="44.5536" fill="#C0C0C0" shape-rendering="crispEdges"/>
<path d="M612.713 145.581C612.677 146.677 612.857 147.77 613.243 148.797C613.629 149.824 614.213 150.764 614.963 151.565C615.713 152.366 616.613 153.012 617.612 153.465C618.611 153.918 619.689 154.17 620.786 154.206C621.882 154.243 622.975 154.063 624.002 153.677C625.029 153.291 625.97 152.706 626.771 151.957C627.572 151.207 628.217 150.307 628.67 149.308C629.123 148.309 629.375 147.23 629.412 146.134C629.448 145.038 629.268 143.945 628.882 142.918C628.496 141.891 627.912 140.95 627.162 140.149C626.412 139.348 625.512 138.703 624.513 138.25C623.514 137.796 622.436 137.544 621.339 137.508C620.243 137.472 619.15 137.652 618.123 138.038C617.096 138.424 616.155 139.008 615.354 139.758C614.553 140.507 613.908 141.407 613.455 142.406C613.002 143.406 612.75 144.484 612.713 145.581Z" stroke="white" stroke-width="5.5692" stroke-linecap="round" stroke-linejoin="round"/>
<path d="M621.061 165.349C617.484 165.349 613.988 166.407 611.014 168.39C608.04 170.372 605.722 173.19 604.353 176.487" stroke="white" stroke-width="5.5692" stroke-linecap="round" stroke-linejoin="round"/>
<path d="M646.122 171.849C647.66 171.849 648.907 170.602 648.907 169.064C648.907 167.526 647.66 166.279 646.122 166.279L646.122 171.849ZM631.271 166.278C629.733 166.278 628.487 167.525 628.487 169.063C628.486 170.601 629.733 171.847 631.271 171.848L631.271 166.278ZM646.122 166.279L631.271 166.278L631.271 171.848L646.122 171.849L646.122 166.279Z" fill="white"/>
<path d="M635.912 176.489C635.912 178.027 637.158 179.274 638.696 179.274C640.234 179.274 641.481 178.027 641.481 176.489L635.912 176.489ZM641.482 161.638C641.482 160.1 640.235 158.853 638.697 158.853C637.16 158.853 635.913 160.1 635.913 161.638L641.482 161.638ZM641.481 176.489L641.482 161.638L635.913 161.638L635.912 176.489L641.481 176.489Z" fill="white"/>
</g>
<rect x="517.095" y="284.048" width="207.917" height="207.917" rx="44.5536" fill="#A78AFE"/>
<circle cx="621.046" cy="388.014" r="26.9178" stroke="white" stroke-width="5.5692"/>
<path d="M621.047 372.234L621.046 388.014L628.472 395.44" stroke="white" stroke-width="5.5692" stroke-linecap="round" stroke-linejoin="round"/>
<rect x="517.064" y="746.083" width="207.917" height="207.917" rx="44.5536" fill="#A78AFE"/>
<path d="M595.953 875.108L646.075 875.111" stroke="white" stroke-width="5.5692" stroke-linecap="round" stroke-linejoin="round"/>
<path d="M646.076 863.973L595.953 863.97L595.955 834.268L609.878 840.766L621.017 824.987L632.155 840.767L646.078 834.271L646.076 863.973Z" stroke="white" stroke-width="5.5692" stroke-linecap="round" stroke-linejoin="round"/>
<g filter="url(#filter13_d_110_88)">
<rect x="517.08" y="515.066" width="207.917" height="207.917" rx="44.5536" fill="#C0C0C0" shape-rendering="crispEdges"/>
<path d="M631.24 644.094L638.665 644.094C642.766 644.094 646.091 640.77 646.091 636.669L646.093 608.823M631.24 644.094L602.911 644.092C599.077 644.091 595.968 640.983 595.969 637.148L595.97 608.82M631.24 644.094L631.242 608.822M631.242 608.822L646.093 608.823M631.242 608.822L595.97 608.82M646.093 608.823L646.094 601.397C646.094 597.296 642.77 593.972 638.669 593.971L602.914 593.969C599.08 593.969 595.971 597.077 595.971 600.911L595.97 608.82" stroke="white" stroke-width="5.5692" stroke-linecap="round" stroke-linejoin="round"/>
</g>
<g filter="url(#filter14_d_110_88)">
<rect x="517.049" y="977.101" width="207.917" height="207.917" rx="44.5536" fill="#C0C0C0" shape-rendering="crispEdges"/>
<path d="M631.209 1106.13L638.635 1106.13C642.736 1106.13 646.06 1102.8 646.061 1098.7L646.063 1070.86M631.209 1106.13L602.88 1106.13C599.046 1106.13 595.938 1103.02 595.938 1099.18L595.94 1070.85M631.209 1106.13L631.211 1070.86M631.211 1070.86L646.063 1070.86M631.211 1070.86L595.94 1070.85M646.063 1070.86L646.063 1063.43C646.063 1059.33 642.739 1056.01 638.638 1056.01L602.884 1056C599.049 1056 595.941 1059.11 595.94 1062.95L595.94 1070.85" stroke="white" stroke-width="5.5692" stroke-linecap="round" stroke-linejoin="round"/>
</g>
<g filter="url(#filter15_d_110_88)">
<rect x="748.128" y="53.0459" width="207.917" height="207.917" rx="44.5536" fill="#C0C0C0" shape-rendering="crispEdges"/>
<path d="M861.36 177.432L866.001 182.074L877.14 170.936" stroke="white" stroke-width="5.5692" stroke-linecap="round" stroke-linejoin="round"/>
<path d="M849.307 182.072L834.442 182.071C830.341 182.071 827.017 178.746 827.017 174.645L827.019 144.943C827.019 140.842 830.344 137.517 834.445 137.518L841.086 137.518C843.342 137.518 845.475 138.544 846.884 140.305L849.851 144.014C851.26 145.775 853.393 146.801 855.649 146.801L869.716 146.802C873.817 146.802 877.141 150.127 877.141 154.228L877.141 157.941" stroke="white" stroke-width="5.5692" stroke-linecap="round" stroke-linejoin="round"/>
</g>
<g filter="url(#filter16_d_110_88)">
<rect x="748.113" y="284.063" width="207.917" height="207.917" rx="44.5536" fill="#C0C0C0" shape-rendering="crispEdges"/>
<path d="M827.001 406.146L827.003 383.997C827.003 381.855 827.992 379.833 829.684 378.517L847.803 364.426C850.31 362.476 853.821 362.477 856.328 364.427L874.446 378.52C876.137 379.836 877.126 381.858 877.126 384.001L877.124 406.149C877.124 409.984 874.015 413.092 870.181 413.092L833.944 413.089C830.109 413.089 827.001 409.98 827.001 406.146Z" stroke="white" stroke-width="5.5692" stroke-linecap="round" stroke-linejoin="round"/>
<path d="M860.417 396.383C859.733 398.032 858.574 399.441 857.087 400.432C855.6 401.423 853.852 401.952 852.063 401.952C850.275 401.952 848.527 401.423 847.04 400.431C845.553 399.44 844.394 398.031 843.71 396.382" stroke="white" stroke-width="5.5692" stroke-linecap="round" stroke-linejoin="round"/>
</g>
<g filter="url(#filter17_d_110_88)">
<rect x="748.082" y="746.099" width="207.917" height="207.917" rx="44.5536" fill="#C0C0C0" shape-rendering="crispEdges"/>
<path d="M877.097 825.005L847.394 825.003L826.972 850.991L851.104 875.126L877.095 854.707L877.097 825.005Z" stroke="white" stroke-width="5.5692" stroke-linecap="round" stroke-linejoin="round"/>
<circle cx="860.388" cy="841.711" r="5.5692" stroke="white" stroke-width="5.5692"/>
</g>
<g filter="url(#filter18_d_110_88)">
<rect x="748.097" y="515.081" width="207.917" height="207.917" rx="44.5536" fill="#C0C0C0" shape-rendering="crispEdges"/>
<path d="M865.97 638.54C865.97 641.615 868.463 644.109 871.539 644.109C874.615 644.109 877.109 641.616 877.109 638.54C877.109 635.465 874.616 632.971 871.54 632.971C868.464 632.971 865.971 635.464 865.97 638.54ZM865.97 638.54L852.047 638.539L838.124 638.538M832.557 605.122L832.556 619.045L832.556 632.968M832.557 605.122C835.633 605.122 838.127 602.629 838.127 599.553M832.557 605.122C829.482 605.122 826.988 602.628 826.989 599.553C826.989 596.477 829.482 593.984 832.558 593.984C835.634 593.984 838.127 596.478 838.127 599.553M832.556 632.968C829.48 632.968 826.986 635.461 826.986 638.537C826.986 641.613 829.479 644.106 832.555 644.107C835.631 644.107 838.124 641.614 838.124 638.538M832.556 632.968C835.631 632.968 838.125 635.462 838.124 638.538M871.555 632.971L871.541 619.048L871.542 605.125M871.542 605.125C874.618 605.125 877.111 602.632 877.111 599.556C877.112 596.48 874.618 593.987 871.542 593.986C868.467 593.986 865.973 596.479 865.973 599.555M871.542 605.125C868.466 605.125 865.973 602.631 865.973 599.555M865.973 599.555L850.194 599.554L838.127 599.553" stroke="white" stroke-width="5.5692"/>
</g>
<g filter="url(#filter19_d_110_88)">
<rect x="748.067" y="977.116" width="207.917" height="207.917" rx="44.5536" fill="#C0C0C0" shape-rendering="crispEdges"/>
<path d="M865.94 1100.57C865.94 1103.65 868.433 1106.14 871.509 1106.14C874.584 1106.14 877.078 1103.65 877.078 1100.58C877.078 1097.5 874.585 1095.01 871.509 1095.01C868.434 1095.01 865.94 1097.5 865.94 1100.57ZM865.94 1100.57L852.017 1100.57L838.094 1100.57M832.527 1067.16L832.526 1081.08L832.525 1095M832.527 1067.16C835.603 1067.16 838.096 1064.66 838.096 1061.59M832.527 1067.16C829.451 1067.16 826.958 1064.66 826.958 1061.59C826.958 1058.51 829.452 1056.02 832.528 1056.02C835.603 1056.02 838.097 1058.51 838.096 1061.59M832.525 1095C829.449 1095 826.956 1097.5 826.955 1100.57C826.955 1103.65 829.448 1106.14 832.524 1106.14C835.6 1106.14 838.094 1103.65 838.094 1100.57M832.525 1095C835.601 1095 838.094 1097.5 838.094 1100.57M871.524 1095.01L871.51 1081.08L871.511 1067.16M871.511 1067.16C874.587 1067.16 877.081 1064.67 877.081 1061.59C877.081 1058.52 874.588 1056.02 871.512 1056.02C868.436 1056.02 865.943 1058.51 865.942 1061.59M871.511 1067.16C868.435 1067.16 865.942 1064.67 865.942 1061.59M865.942 1061.59L850.163 1061.59L838.096 1061.59" stroke="white" stroke-width="5.5692"/>
</g>
<g filter="url(#filter20_d_110_88)">
<rect x="55.0751" y="53.0002" width="207.917" height="207.917" rx="44.5536" fill="#C0C0C0" shape-rendering="crispEdges"/>
<rect x="133.966" y="140.256" width="50.1228" height="41.769" rx="7.4256" stroke="white" stroke-width="5.5692" stroke-linejoin="round"/>
<path d="M146.962 131.903L146.961 140.257" stroke="white" stroke-width="5.5692" stroke-linecap="round"/>
<path d="M171.095 131.905L171.094 140.259" stroke="white" stroke-width="5.5692" stroke-linecap="round"/>
<path d="M133.965 152.323L184.088 152.326" stroke="white" stroke-width="5.5692"/>
</g>
<g filter="url(#filter21_d_110_88)">
<path fill-rule="evenodd" clip-rule="evenodd" d="M963.692 150.87C963.696 98.334 1006.29 55.7479 1058.82 55.7514V55.7514C1111.36 55.7549 1153.95 98.3467 1153.94 150.883L1153.94 190.29C1153.94 215.879 1164.1 240.422 1182.19 258.517V258.517C1200.29 276.613 1224.83 286.78 1250.42 286.782L1289.83 286.784C1342.36 286.788 1384.95 329.379 1384.94 381.915V381.915C1384.94 434.452 1342.35 477.038 1289.81 477.034V477.034C1237.28 477.031 1194.69 434.439 1194.69 381.903L1194.7 342.496C1194.7 316.906 1184.54 292.364 1166.44 274.268V274.268C1148.35 256.173 1123.81 246.006 1098.22 246.004L1058.81 246.001C1006.27 245.998 963.689 203.406 963.692 150.87V150.87Z" fill="#C0C0C0"/>
</g>
<g filter="url(#filter22_d_110_88)">
<path fill-rule="evenodd" clip-rule="evenodd" d="M963.662 612.905C963.658 665.441 1006.24 708.033 1058.78 708.036V708.036C1111.32 708.04 1153.91 665.454 1153.91 612.918L1153.91 573.511C1153.92 547.921 1164.08 523.38 1182.18 505.287V505.287C1200.27 487.194 1224.82 477.03 1250.41 477.031L1289.81 477.034C1342.35 477.038 1384.94 434.452 1384.94 381.915V381.915C1384.95 329.379 1342.36 286.788 1289.83 286.784V286.784C1237.29 286.781 1194.7 329.367 1194.69 381.903L1194.69 421.31C1194.69 446.9 1184.52 471.44 1166.43 489.534V489.534C1148.33 507.627 1123.79 517.791 1098.2 517.789L1058.79 517.787C1006.26 517.783 963.665 560.369 963.662 612.905V612.905Z" fill="#C0C0C0"/>
</g>
<path fill-rule="evenodd" clip-rule="evenodd" d="M1194.68 612.92C1194.68 665.456 1237.26 708.048 1289.8 708.051V708.051C1342.33 708.055 1384.93 665.469 1384.93 612.933L1384.93 573.526C1384.93 547.936 1395.1 523.395 1413.2 505.302V505.302C1431.29 487.209 1455.83 477.045 1481.42 477.047L1520.83 477.049C1573.37 477.053 1615.96 434.467 1615.96 381.931V381.931C1615.97 329.395 1573.38 286.803 1520.84 286.799V286.799C1468.31 286.796 1425.72 329.382 1425.71 381.918L1425.71 421.325C1425.71 446.915 1415.54 471.456 1397.44 489.549V489.549C1379.35 507.642 1354.81 517.806 1329.22 517.804L1289.81 517.802C1237.27 517.798 1194.68 560.384 1194.68 612.92V612.92Z" fill="#A78AFE"/>
<g filter="url(#filter23_d_110_88)">
<path fill-rule="evenodd" clip-rule="evenodd" d="M1425.7 612.936C1425.69 665.472 1468.28 708.064 1520.82 708.067V708.067C1573.35 708.071 1615.94 665.485 1615.95 612.949L1615.95 573.541C1615.95 547.951 1626.12 523.411 1644.21 505.318V505.318C1662.31 487.224 1686.85 477.061 1712.44 477.062L1751.85 477.065C1804.38 477.068 1846.98 434.482 1846.98 381.946V381.946C1846.98 329.41 1804.4 286.819 1751.86 286.815V286.815C1699.32 286.812 1656.73 329.398 1656.73 381.934L1656.73 421.34C1656.73 446.93 1646.56 471.471 1628.46 489.564V489.564C1610.37 507.658 1585.82 517.822 1560.23 517.82L1520.83 517.817C1468.29 517.814 1425.7 560.4 1425.7 612.936V612.936Z" fill="#C0C0C0"/>
</g>
<g filter="url(#filter24_d_110_88)">
<path fill-rule="evenodd" clip-rule="evenodd" d="M963.662 612.905C963.665 560.369 1006.26 517.783 1058.79 517.787V517.787C1111.33 517.79 1153.91 560.382 1153.91 612.918L1153.91 652.325C1153.91 677.915 1164.07 702.457 1182.16 720.552V720.552C1200.26 738.648 1224.8 748.815 1250.39 748.817L1289.8 748.819C1342.33 748.823 1384.92 791.415 1384.91 843.951V843.951C1384.91 896.487 1342.32 939.073 1289.78 939.069V939.069C1237.25 939.066 1194.66 896.474 1194.66 843.938L1194.67 804.531C1194.67 778.941 1184.5 754.399 1166.41 736.303V736.303C1148.32 718.208 1123.78 708.041 1098.19 708.039L1058.78 708.036C1006.24 708.033 963.658 665.441 963.662 612.905V612.905Z" fill="#C0C0C0"/>
</g>
<g filter="url(#filter25_d_110_88)">
<path fill-rule="evenodd" clip-rule="evenodd" d="M963.631 1074.94C963.627 1127.48 1006.21 1170.07 1058.75 1170.07V1170.07C1111.29 1170.08 1153.88 1127.49 1153.88 1074.95L1153.88 1035.55C1153.89 1009.96 1164.05 985.416 1182.15 967.322V967.322C1200.24 949.229 1224.79 939.065 1250.38 939.067L1289.78 939.069C1342.32 939.073 1384.91 896.487 1384.91 843.951V843.951C1384.92 791.415 1342.33 748.823 1289.8 748.82V748.82C1237.26 748.816 1194.67 791.402 1194.66 843.938L1194.66 883.345C1194.66 908.935 1184.49 933.476 1166.4 951.569V951.569C1148.3 969.662 1123.76 979.826 1098.17 979.825L1058.76 979.822C1006.23 979.818 963.634 1022.4 963.631 1074.94V1074.94Z" fill="#C0C0C0"/>
</g>
<path fill-rule="evenodd" clip-rule="evenodd" d="M1194.65 1074.96C1194.65 1127.49 1237.23 1170.08 1289.77 1170.09V1170.09C1342.3 1170.09 1384.89 1127.5 1384.9 1074.97L1384.9 1035.56C1384.9 1009.97 1395.07 985.431 1413.17 967.337V967.337C1431.26 949.244 1455.8 939.08 1481.39 939.082L1520.8 939.085C1573.34 939.088 1615.93 896.502 1615.93 843.966V843.966C1615.93 791.43 1573.35 748.838 1520.81 748.835V748.835C1468.28 748.831 1425.68 791.418 1425.68 843.954L1425.68 883.361C1425.68 908.95 1415.51 933.491 1397.41 951.584V951.584C1379.32 969.678 1354.78 979.841 1329.19 979.84L1289.78 979.837C1237.24 979.834 1194.65 1022.42 1194.65 1074.96V1074.96Z" fill="#A78AFE"/>
<g filter="url(#filter26_d_110_88)">
<path fill-rule="evenodd" clip-rule="evenodd" d="M1425.67 1074.97C1425.66 1127.51 1468.25 1170.1 1520.78 1170.1V1170.1C1573.32 1170.11 1615.91 1127.52 1615.92 1074.98L1615.92 1035.58C1615.92 1009.99 1626.09 985.446 1644.18 967.353V967.353C1662.28 949.259 1686.82 939.096 1712.41 939.097L1751.82 939.1C1804.35 939.103 1846.95 896.517 1846.95 843.981V843.981C1846.95 791.445 1804.37 748.854 1751.83 748.85V748.85C1699.29 748.847 1656.7 791.433 1656.7 843.969L1656.7 883.376C1656.69 908.965 1646.53 933.506 1628.43 951.599V951.599C1610.34 969.693 1585.79 979.857 1560.2 979.855L1520.8 979.852C1468.26 979.849 1425.67 1022.43 1425.67 1074.97V1074.97Z" fill="#C0C0C0"/>
</g>
<path fill-rule="evenodd" clip-rule="evenodd" d="M1194.71 150.885C1194.71 98.3493 1237.31 55.7633 1289.84 55.7668V55.7668C1342.38 55.7703 1384.96 98.362 1384.96 150.898L1384.96 190.305C1384.96 215.895 1395.12 240.437 1413.21 258.533V258.533C1431.31 276.628 1455.85 286.795 1481.44 286.797L1520.84 286.8C1573.38 286.803 1615.97 329.395 1615.96 381.931V381.931C1615.96 434.467 1573.37 477.053 1520.83 477.049V477.049C1468.29 477.046 1425.71 434.454 1425.71 381.918L1425.71 342.511C1425.72 316.922 1415.55 292.38 1397.46 274.284V274.284C1379.37 256.188 1354.83 246.021 1329.24 246.019L1289.83 246.017C1237.29 246.013 1194.71 203.421 1194.71 150.885V150.885Z" fill="#A78AFE"/>
<path fill-rule="evenodd" clip-rule="evenodd" d="M1194.68 612.92C1194.68 560.384 1237.27 517.798 1289.81 517.802V517.802C1342.35 517.805 1384.93 560.397 1384.93 612.933L1384.93 652.34C1384.92 677.93 1395.09 702.472 1413.18 720.568V720.568C1431.27 738.663 1455.82 748.83 1481.41 748.832L1520.81 748.835C1573.35 748.838 1615.93 791.43 1615.93 843.966V843.966C1615.93 896.502 1573.34 939.088 1520.8 939.084V939.084C1468.26 939.081 1425.68 896.489 1425.68 843.953L1425.68 804.546C1425.69 778.957 1415.52 754.414 1397.43 736.319V736.319C1379.34 718.223 1354.79 708.056 1329.2 708.054L1289.8 708.052C1237.26 708.048 1194.68 665.456 1194.68 612.92V612.92Z" fill="#A78AFE"/>
<g filter="url(#filter27_d_110_88)">
<path fill-rule="evenodd" clip-rule="evenodd" d="M1425.73 150.901C1425.73 98.3645 1468.32 55.7785 1520.86 55.7819V55.7819C1573.39 55.7854 1615.98 98.3771 1615.98 150.913L1615.97 190.321C1615.97 215.91 1626.14 240.452 1644.23 258.548V258.548C1662.32 276.644 1686.86 286.811 1712.45 286.812L1751.86 286.815C1804.4 286.818 1846.98 329.41 1846.98 381.946V381.946C1846.98 434.482 1804.38 477.068 1751.85 477.065V477.065C1699.31 477.061 1656.73 434.469 1656.73 381.933L1656.73 342.527C1656.73 316.937 1646.57 292.395 1628.48 274.299V274.299C1610.38 256.203 1585.84 246.036 1560.25 246.034L1520.85 246.032C1468.31 246.028 1425.72 203.437 1425.73 150.901V150.901Z" fill="#C0C0C0"/>
</g>
<g filter="url(#filter28_d_110_88)">
<path fill-rule="evenodd" clip-rule="evenodd" d="M1425.7 612.936C1425.7 560.4 1468.29 517.814 1520.83 517.817V517.817C1573.36 517.821 1615.95 560.412 1615.95 612.948L1615.94 652.356C1615.94 677.945 1626.11 702.487 1644.2 720.583V720.583C1662.29 738.679 1686.83 748.846 1712.42 748.847L1751.83 748.85C1804.37 748.854 1846.95 791.445 1846.95 843.981V843.981C1846.95 896.517 1804.35 939.103 1751.82 939.1V939.1C1699.28 939.096 1656.7 896.505 1656.7 843.969L1656.7 804.562C1656.7 778.972 1646.54 754.43 1628.45 736.334V736.334C1610.35 718.238 1585.81 708.071 1560.22 708.069L1520.82 708.067C1468.28 708.063 1425.69 665.472 1425.7 612.936V612.936Z" fill="#C0C0C0"/>
</g>
<path d="M963.68 331.316C963.682 306.71 983.631 286.764 1008.24 286.765L1127.05 286.773C1151.65 286.775 1171.6 306.724 1171.6 331.33L1171.59 450.139C1171.59 474.746 1151.64 494.692 1127.03 494.69L1008.22 494.682C983.617 494.681 963.671 474.732 963.672 450.126L963.68 331.316Z" fill="#000001" fill-opacity="0.75"/>
<g clip-path="url(#clip2_110_88)">
<ellipse cx="1067.63" cy="390.728" rx="10.2102" ry="26.9178" stroke="white" stroke-width="5.5692"/>
<path d="M1040.72 390.726L1094.55 390.729" stroke="white" stroke-width="5.5692" stroke-linecap="round" stroke-linejoin="round"/>
<circle cx="1067.63" cy="390.728" r="26.9178" stroke="white" stroke-width="5.5692"/>
</g>
<rect x="963.653" y="748.798" width="207.917" height="207.917" rx="44.5536" fill="#000001" fill-opacity="0.75"/>
<rect x="1059.25" y="827.702" width="16.7076" height="25.9896" rx="8.3538" stroke="white" stroke-width="5.5692"/>
<path d="M1084.75 852.443C1083.35 855.835 1080.97 858.734 1077.92 860.774C1074.86 862.814 1071.27 863.902 1067.6 863.902C1063.93 863.902 1060.34 862.813 1057.29 860.773C1054.24 858.733 1051.86 855.833 1050.45 852.441" stroke="white" stroke-width="5.5692" stroke-linecap="round" stroke-linejoin="round"/>
<path d="M1067.6 863.902L1067.6 877.825M1067.6 877.825L1075.96 877.825M1067.6 877.825L1059.25 877.824" stroke="white" stroke-width="5.5692" stroke-linecap="round" stroke-linejoin="round"/>
<g filter="url(#filter29_d_110_88)">
<rect x="963.668" y="517.78" width="207.917" height="207.917" rx="44.5536" fill="#C0C0C0" shape-rendering="crispEdges"/>
<path d="M1069.49 642.185C1066.53 645.144 1062.52 646.807 1058.34 646.806C1054.15 646.806 1050.14 645.143 1047.18 642.184C1044.22 639.225 1042.56 635.211 1042.56 631.026C1042.56 626.841 1044.22 622.828 1047.18 619.869" stroke="white" stroke-width="5.5692" stroke-linecap="round"/>
<path d="M1060.18 606.875C1063.13 603.916 1067.15 602.254 1071.33 602.254C1075.52 602.254 1079.53 603.917 1082.49 606.876C1085.45 609.836 1087.11 613.849 1087.11 618.034C1087.11 622.219 1085.45 626.233 1082.49 629.192" stroke="white" stroke-width="5.5692" stroke-linecap="round"/>
<path d="M1071.33 618.033L1058.34 631.027" stroke="white" stroke-width="5.5692" stroke-linecap="round"/>
</g>
<g filter="url(#filter30_d_110_88)">
<rect x="963.637" y="979.815" width="207.917" height="207.917" rx="44.5536" fill="#C0C0C0" shape-rendering="crispEdges"/>
<path d="M1069.46 1104.22C1066.5 1107.18 1062.49 1108.84 1058.31 1108.84C1054.12 1108.84 1050.11 1107.18 1047.15 1104.22C1044.19 1101.26 1042.53 1097.25 1042.53 1093.06C1042.53 1088.88 1044.19 1084.86 1047.15 1081.9" stroke="white" stroke-width="5.5692" stroke-linecap="round"/>
<path d="M1060.14 1068.91C1063.1 1065.95 1067.12 1064.29 1071.3 1064.29C1075.49 1064.29 1079.5 1065.95 1082.46 1068.91C1085.42 1071.87 1087.08 1075.88 1087.08 1080.07C1087.08 1084.25 1085.42 1088.27 1082.46 1091.23" stroke="white" stroke-width="5.5692" stroke-linecap="round"/>
<path d="M1071.3 1080.07L1058.31 1093.06" stroke="white" stroke-width="5.5692" stroke-linecap="round"/>
</g>
<rect x="1194.72" y="55.7605" width="207.917" height="207.917" rx="44.5536" fill="#A78AFE"/>
<path d="M1293.1 159.541C1293.08 160.272 1293.2 161.001 1293.45 161.685C1293.71 162.37 1294.1 162.997 1294.6 163.531C1295.1 164.065 1295.7 164.496 1296.37 164.798C1297.03 165.1 1297.75 165.268 1298.48 165.292C1299.21 165.316 1299.94 165.196 1300.63 164.939C1301.31 164.682 1301.94 164.292 1302.47 163.792C1303.01 163.292 1303.44 162.692 1303.74 162.026C1304.04 161.36 1304.21 160.641 1304.23 159.91C1304.26 159.179 1304.14 158.451 1303.88 157.766C1303.62 157.082 1303.23 156.454 1302.73 155.92C1302.23 155.386 1301.63 154.956 1300.97 154.654C1300.3 154.352 1299.58 154.184 1298.85 154.16C1298.12 154.135 1297.39 154.255 1296.71 154.513C1296.02 154.77 1295.4 155.16 1294.86 155.659C1294.33 156.159 1293.9 156.759 1293.6 157.425C1293.29 158.091 1293.13 158.81 1293.1 159.541Z" stroke="white" stroke-width="5.5692" stroke-linecap="round" stroke-linejoin="round"/>
<path d="M1294.83 135.128C1297.19 133.701 1300.15 133.701 1302.51 135.128L1317.36 144.102C1319.59 145.446 1320.95 147.857 1320.95 150.458L1320.94 168.997C1320.94 171.597 1319.58 174.008 1317.36 175.352L1302.51 184.324C1300.14 185.75 1297.19 185.75 1294.83 184.323L1279.98 175.35C1277.75 174.005 1276.39 171.594 1276.39 168.994L1276.39 150.455C1276.39 147.854 1277.75 145.444 1279.98 144.099L1294.83 135.128Z" stroke="white" stroke-width="5.5692" stroke-linejoin="round"/>
<g filter="url(#filter31_d_110_88)">
<rect x="1194.7" y="286.778" width="207.917" height="207.917" rx="44.5536" fill="#C0C0C0" shape-rendering="crispEdges"/>
<path d="M1273.59 382.742C1273.59 378.445 1276.92 374.963 1281.02 374.963L1316.29 374.965C1320.39 374.966 1323.71 378.449 1323.71 382.745L1323.71 408.027C1323.71 412.324 1320.39 415.806 1316.29 415.806L1281.01 415.804C1276.91 415.803 1273.59 412.32 1273.59 408.024L1273.59 382.742Z" stroke="white" stroke-width="5.5692"/>
<path d="M1293.09 395.2C1293.06 395.931 1293.18 396.66 1293.44 397.344C1293.7 398.029 1294.09 398.656 1294.59 399.19C1295.09 399.724 1295.69 400.154 1296.35 400.456C1297.02 400.758 1297.74 400.926 1298.47 400.951C1299.2 400.975 1299.93 400.855 1300.61 400.598C1301.3 400.34 1301.92 399.951 1302.46 399.451C1302.99 398.951 1303.42 398.351 1303.72 397.685C1304.03 397.019 1304.19 396.3 1304.22 395.569C1304.24 394.838 1304.12 394.109 1303.87 393.425C1303.61 392.74 1303.22 392.113 1302.72 391.579C1302.22 391.045 1301.62 390.615 1300.95 390.313C1300.29 390.011 1299.57 389.843 1298.84 389.818C1298.11 389.794 1297.38 389.914 1296.69 390.171C1296.01 390.429 1295.38 390.818 1294.85 391.318C1294.31 391.818 1293.88 392.418 1293.58 393.084C1293.28 393.75 1293.11 394.469 1293.09 395.2Z" stroke="white" stroke-width="5.5692" stroke-linecap="round" stroke-linejoin="round"/>
<path d="M1292.16 368.466C1293.69 368.466 1294.94 367.22 1294.94 365.682C1294.94 364.144 1293.69 362.897 1292.16 362.897L1292.16 368.466ZM1279.16 362.896C1277.62 362.896 1276.38 364.143 1276.38 365.681C1276.38 367.219 1277.62 368.465 1279.16 368.466L1279.16 362.896ZM1292.16 362.897L1279.16 362.896L1279.16 368.466L1292.16 368.466L1292.16 362.897Z" fill="white"/>
</g>
<g filter="url(#filter32_d_110_88)">
<rect x="1194.67" y="748.813" width="207.917" height="207.917" rx="44.5536" fill="#C0C0C0" shape-rendering="crispEdges"/>
<path d="M1286.56 848.137L1285.17 845.719C1284.31 846.215 1283.77 847.137 1283.77 848.137L1286.56 848.137ZM1304.19 864.846L1304.19 867.63C1305.3 867.63 1306.31 866.967 1306.75 865.943L1304.19 864.846ZM1318.12 861.07L1317.94 863.849L1318.12 861.07ZM1306.1 860.4L1303.54 859.303L1306.1 860.4ZM1308.98 859.327L1308 861.934L1308.98 859.327ZM1292.16 842.652L1289.57 843.672L1292.16 842.652ZM1270.78 835.141C1270.78 849.142 1274.89 860.597 1282.84 868.554C1290.8 876.51 1302.25 880.625 1316.26 880.626L1316.26 875.057C1303.34 875.056 1293.45 871.279 1286.78 864.616C1280.12 857.952 1276.35 848.059 1276.35 835.141L1270.78 835.141ZM1322.75 874.129L1322.75 862.991L1317.18 862.99L1317.18 874.129L1322.75 874.129ZM1283.77 848.137C1283.77 853.227 1286.29 858.09 1289.96 861.628C1293.64 865.179 1298.72 867.63 1304.19 867.63L1304.19 862.061C1300.38 862.061 1296.64 860.335 1293.83 857.619C1291 854.891 1289.34 851.401 1289.34 848.137L1283.77 848.137ZM1287.94 850.555L1292.71 847.829L1289.94 842.993L1285.17 845.719L1287.94 850.555ZM1306.75 865.943L1308.66 861.497L1303.54 859.303L1301.63 863.749L1306.75 865.943ZM1294.75 841.632C1293.87 839.396 1293.29 835.935 1293.11 833.107L1287.55 833.461C1287.75 836.566 1288.39 840.674 1289.57 843.672L1294.75 841.632ZM1288.41 828.645L1277.27 828.644L1277.27 834.213L1288.41 834.214L1288.41 828.645ZM1308 861.934C1310.96 863.046 1314.91 863.656 1317.94 863.849L1318.29 858.291C1315.55 858.116 1312.2 857.564 1309.95 856.72L1308 861.934ZM1293.11 833.107C1292.96 830.72 1291.01 828.645 1288.41 828.645L1288.41 834.214C1287.87 834.214 1287.58 833.801 1287.55 833.461L1293.11 833.107ZM1322.75 862.991C1322.75 860.396 1320.68 858.443 1318.29 858.291L1317.94 863.849C1317.6 863.827 1317.18 863.535 1317.18 862.99L1322.75 862.991ZM1308.66 861.497C1308.53 861.782 1308.32 861.903 1308.23 861.936C1308.15 861.964 1308.08 861.965 1308 861.934L1309.95 856.72C1307.79 855.909 1304.71 856.575 1303.54 859.303L1308.66 861.497ZM1316.26 880.626C1319.84 880.626 1322.75 877.717 1322.75 874.129L1317.18 874.129C1317.18 874.641 1316.77 875.057 1316.26 875.057L1316.26 880.626ZM1292.71 847.829C1295.1 846.465 1295.54 843.629 1294.75 841.632L1289.57 843.672C1289.55 843.606 1289.54 843.536 1289.56 843.446C1289.59 843.341 1289.7 843.135 1289.94 842.993L1292.71 847.829ZM1276.35 835.141C1276.35 834.629 1276.76 834.213 1277.27 834.213L1277.27 828.644C1273.69 828.644 1270.78 831.553 1270.78 835.141L1276.35 835.141Z" fill="white"/>
</g>
<rect x="1194.69" y="517.795" width="207.917" height="207.917" rx="44.5536" fill="#A78AFE"/>
<path d="M1323.7 618.978L1323.7 609.213C1323.7 605.379 1320.59 602.27 1316.76 602.27L1300.49 602.269L1280.52 602.267C1276.69 602.267 1273.58 605.375 1273.58 609.21L1273.57 634.308C1273.57 638.143 1276.68 641.251 1280.52 641.252L1299.56 641.253" stroke="white" stroke-width="5.5692" stroke-linecap="round" stroke-linejoin="round"/>
<path d="M1276.36 605.052L1294.35 617.792C1296.92 619.614 1300.36 619.614 1302.93 617.793L1320.91 605.055" stroke="white" stroke-width="5.5692" stroke-linecap="round" stroke-linejoin="round"/>
<path d="M1324.51 646.008C1325.6 647.096 1327.36 647.096 1328.45 646.009C1329.54 644.921 1329.54 643.158 1328.45 642.071L1324.51 646.008ZM1317.31 630.932C1316.23 629.844 1314.46 629.844 1313.37 630.931C1312.29 632.019 1312.29 633.782 1313.37 634.869L1317.31 630.932ZM1328.45 642.071L1317.31 630.932L1313.37 634.869L1324.51 646.008L1328.45 642.071Z" fill="white"/>
<path d="M1313.37 642.07C1312.29 643.157 1312.29 644.92 1313.37 646.008C1314.46 647.095 1316.22 647.095 1317.31 646.008L1313.37 642.07ZM1328.45 634.87C1329.54 633.783 1329.54 632.02 1328.45 630.932C1327.36 629.845 1325.6 629.845 1324.51 630.932L1328.45 634.87ZM1317.31 646.008L1328.45 634.87L1324.51 630.932L1313.37 642.07L1317.31 646.008Z" fill="white"/>
<rect x="1194.65" y="979.831" width="207.917" height="207.917" rx="44.5536" fill="#A78AFE"/>
<path d="M1323.67 1081.01L1323.67 1071.25C1323.67 1067.41 1320.56 1064.31 1316.73 1064.31L1300.46 1064.3L1280.49 1064.3C1276.65 1064.3 1273.55 1067.41 1273.55 1071.25L1273.54 1096.34C1273.54 1100.18 1276.65 1103.29 1280.49 1103.29L1299.53 1103.29" stroke="white" stroke-width="5.5692" stroke-linecap="round" stroke-linejoin="round"/>
<path d="M1276.33 1067.09L1294.31 1079.83C1296.89 1081.65 1300.33 1081.65 1302.9 1079.83L1320.88 1067.09" stroke="white" stroke-width="5.5692" stroke-linecap="round" stroke-linejoin="round"/>
<path d="M1324.48 1108.04C1325.57 1109.13 1327.33 1109.13 1328.42 1108.04C1329.51 1106.96 1329.51 1105.19 1328.42 1104.11L1324.48 1108.04ZM1317.28 1092.97C1316.19 1091.88 1314.43 1091.88 1313.34 1092.97C1312.26 1094.05 1312.26 1095.82 1313.34 1096.9L1317.28 1092.97ZM1328.42 1104.11L1317.28 1092.97L1313.34 1096.9L1324.48 1108.04L1328.42 1104.11Z" fill="white"/>
<path d="M1313.34 1104.1C1312.26 1105.19 1312.26 1106.96 1313.34 1108.04C1314.43 1109.13 1316.19 1109.13 1317.28 1108.04L1313.34 1104.1ZM1328.42 1096.91C1329.51 1095.82 1329.51 1094.05 1328.42 1092.97C1327.33 1091.88 1325.57 1091.88 1324.48 1092.97L1328.42 1096.91ZM1317.28 1108.04L1328.42 1096.91L1324.48 1092.97L1313.34 1104.1L1317.28 1108.04Z" fill="white"/>
<g filter="url(#filter33_d_110_88)">
<rect x="1425.73" y="55.7756" width="207.917" height="207.917" rx="44.5536" fill="#C0C0C0" shape-rendering="crispEdges"/>
<path d="M1521.34 148.326C1521.3 149.422 1521.48 150.515 1521.87 151.542C1522.25 152.569 1522.84 153.509 1523.59 154.31C1524.34 155.111 1525.24 155.757 1526.24 156.21C1527.23 156.663 1528.31 156.915 1529.41 156.952C1530.51 156.988 1531.6 156.808 1532.63 156.422C1533.65 156.036 1534.59 155.451 1535.39 154.702C1536.19 153.952 1536.84 153.052 1537.29 152.053C1537.75 151.054 1538 149.976 1538.04 148.879C1538.07 147.783 1537.89 146.69 1537.51 145.663C1537.12 144.636 1536.53 143.695 1535.79 142.894C1535.04 142.093 1534.14 141.448 1533.14 140.995C1532.14 140.541 1531.06 140.29 1529.96 140.253C1528.87 140.217 1527.77 140.397 1526.75 140.783C1525.72 141.169 1524.78 141.753 1523.98 142.503C1523.18 143.253 1522.53 144.153 1522.08 145.152C1521.62 146.151 1521.37 147.229 1521.34 148.326Z" stroke="white" stroke-width="5.5692" stroke-linecap="round" stroke-linejoin="round"/>
<path d="M1529.68 168.095C1526.11 168.094 1522.61 169.152 1519.64 171.135C1516.66 173.117 1514.35 175.935 1512.98 179.232" stroke="white" stroke-width="5.5692" stroke-linecap="round" stroke-linejoin="round"/>
<path d="M1554.75 174.594C1556.28 174.594 1557.53 173.347 1557.53 171.809C1557.53 170.271 1556.28 169.025 1554.75 169.024L1554.75 174.594ZM1539.89 169.024C1538.36 169.023 1537.11 170.27 1537.11 171.808C1537.11 173.346 1538.36 174.593 1539.89 174.593L1539.89 169.024ZM1554.75 169.024L1539.89 169.024L1539.89 174.593L1554.75 174.594L1554.75 169.024Z" fill="white"/>
<path d="M1544.54 179.234C1544.53 180.772 1545.78 182.019 1547.32 182.019C1548.86 182.019 1550.1 180.772 1550.1 179.234L1544.54 179.234ZM1550.11 164.383C1550.11 162.845 1548.86 161.599 1547.32 161.598C1545.78 161.598 1544.54 162.845 1544.54 164.383L1550.11 164.383ZM1550.1 179.234L1550.11 164.383L1544.54 164.383L1544.54 179.234L1550.1 179.234Z" fill="white"/>
</g>
<rect x="1425.72" y="286.793" width="207.917" height="207.917" rx="44.5536" fill="#A78AFE"/>
<circle cx="1529.67" cy="390.759" r="26.9178" stroke="white" stroke-width="5.5692"/>
<path d="M1529.67 374.979L1529.67 390.759L1537.1 398.185" stroke="white" stroke-width="5.5692" stroke-linecap="round" stroke-linejoin="round"/>
<rect x="1425.69" y="748.828" width="207.917" height="207.917" rx="44.5536" fill="#A78AFE"/>
<path d="M1504.58 877.853L1554.7 877.857" stroke="white" stroke-width="5.5692" stroke-linecap="round" stroke-linejoin="round"/>
<path d="M1554.7 866.718L1504.58 866.715L1504.58 837.013L1518.5 843.511L1529.64 827.732L1540.78 843.513L1554.7 837.016L1554.7 866.718Z" stroke="white" stroke-width="5.5692" stroke-linecap="round" stroke-linejoin="round"/>
<g filter="url(#filter34_d_110_88)">
<rect x="1425.7" y="517.811" width="207.917" height="207.917" rx="44.5536" fill="#C0C0C0" shape-rendering="crispEdges"/>
<path d="M1539.86 646.839L1547.29 646.839C1551.39 646.839 1554.71 643.515 1554.71 639.414L1554.72 611.568M1539.86 646.839L1511.53 646.837C1507.7 646.836 1504.59 643.728 1504.59 639.893L1504.59 611.565M1539.86 646.839L1539.87 611.567M1539.87 611.567L1554.72 611.568M1539.87 611.567L1504.59 611.565M1554.72 611.568L1554.72 604.142C1554.72 600.041 1551.39 596.716 1547.29 596.716L1511.54 596.714C1507.7 596.714 1504.59 599.822 1504.59 603.656L1504.59 611.565" stroke="white" stroke-width="5.5692" stroke-linecap="round" stroke-linejoin="round"/>
</g>
<g filter="url(#filter35_d_110_88)">
<rect x="1425.67" y="979.846" width="207.917" height="207.917" rx="44.5536" fill="#C0C0C0" shape-rendering="crispEdges"/>
<path d="M1539.83 1108.87L1547.26 1108.87C1551.36 1108.87 1554.68 1105.55 1554.68 1101.45L1554.69 1073.6M1539.83 1108.87L1511.5 1108.87C1507.67 1108.87 1504.56 1105.76 1504.56 1101.93L1504.56 1073.6M1539.83 1108.87L1539.83 1073.6M1539.83 1073.6L1554.69 1073.6M1539.83 1073.6L1504.56 1073.6M1554.69 1073.6L1554.69 1066.18C1554.69 1062.08 1551.36 1058.75 1547.26 1058.75L1511.51 1058.75C1507.67 1058.75 1504.56 1061.86 1504.56 1065.69L1504.56 1073.6" stroke="white" stroke-width="5.5692" stroke-linecap="round" stroke-linejoin="round"/>
</g>
<g filter="url(#filter36_d_110_88)">
<rect x="1656.75" y="55.7908" width="207.917" height="207.917" rx="44.5536" fill="#C0C0C0" shape-rendering="crispEdges"/>
<path d="M1769.98 180.177L1774.62 184.818L1785.76 173.681" stroke="white" stroke-width="5.5692" stroke-linecap="round" stroke-linejoin="round"/>
<path d="M1757.93 184.817L1743.07 184.816C1738.96 184.816 1735.64 181.491 1735.64 177.39L1735.64 147.688C1735.64 143.587 1738.97 140.262 1743.07 140.262L1749.71 140.263C1751.97 140.263 1754.1 141.289 1755.51 143.05L1758.47 146.759C1759.88 148.52 1762.02 149.546 1764.27 149.546L1778.34 149.547C1782.44 149.547 1785.76 152.872 1785.76 156.973L1785.76 160.686" stroke="white" stroke-width="5.5692" stroke-linecap="round" stroke-linejoin="round"/>
</g>
<g filter="url(#filter37_d_110_88)">
<rect x="1656.74" y="286.809" width="207.917" height="207.917" rx="44.5536" fill="#C0C0C0" shape-rendering="crispEdges"/>
<path d="M1735.62 408.891L1735.63 386.743C1735.63 384.6 1736.62 382.578 1738.31 381.262L1756.43 367.171C1758.93 365.222 1762.44 365.222 1764.95 367.172L1783.07 381.265C1784.76 382.581 1785.75 384.603 1785.75 386.746L1785.75 408.894C1785.75 412.729 1782.64 415.837 1778.8 415.837L1742.57 415.834C1738.73 415.834 1735.62 412.725 1735.62 408.891Z" stroke="white" stroke-width="5.5692" stroke-linecap="round" stroke-linejoin="round"/>
<path d="M1769.04 399.128C1768.36 400.777 1767.2 402.186 1765.71 403.177C1764.22 404.168 1762.47 404.697 1760.69 404.697C1758.9 404.697 1757.15 404.168 1755.66 403.176C1754.18 402.185 1753.02 400.776 1752.33 399.127" stroke="white" stroke-width="5.5692" stroke-linecap="round" stroke-linejoin="round"/>
</g>
<g filter="url(#filter38_d_110_88)">
<rect x="1656.71" y="748.844" width="207.917" height="207.917" rx="44.5536" fill="#C0C0C0" shape-rendering="crispEdges"/>
<path d="M1785.72 827.75L1756.02 827.748L1735.6 853.736L1759.73 877.871L1785.72 857.452L1785.72 827.75Z" stroke="white" stroke-width="5.5692" stroke-linecap="round" stroke-linejoin="round"/>
<circle cx="1769.01" cy="844.456" r="5.5692" stroke="white" stroke-width="5.5692"/>
</g>
<g filter="url(#filter39_d_110_88)">
<rect x="1656.72" y="517.826" width="207.917" height="207.917" rx="44.5536" fill="#C0C0C0" shape-rendering="crispEdges"/>
<path d="M1774.59 641.285C1774.59 644.36 1777.09 646.854 1780.16 646.854C1783.24 646.854 1785.73 644.361 1785.73 641.285C1785.73 638.21 1783.24 635.716 1780.16 635.716C1777.09 635.716 1774.59 638.209 1774.59 641.285ZM1774.59 641.285L1760.67 641.284L1746.75 641.283M1741.18 607.867L1741.18 621.79L1741.18 635.713M1741.18 607.867C1744.26 607.867 1746.75 605.374 1746.75 602.298M1741.18 607.867C1738.11 607.867 1735.61 605.373 1735.61 602.298C1735.61 599.222 1738.11 596.729 1741.18 596.729C1744.26 596.729 1746.75 599.223 1746.75 602.298M1741.18 635.713C1738.1 635.713 1735.61 638.206 1735.61 641.282C1735.61 644.358 1738.1 646.851 1741.18 646.852C1744.25 646.852 1746.75 644.359 1746.75 641.283M1741.18 635.713C1744.25 635.713 1746.75 638.207 1746.75 641.283M1780.18 635.716L1780.16 621.793L1780.17 607.87M1780.17 607.87C1783.24 607.87 1785.73 605.377 1785.73 602.301C1785.74 599.225 1783.24 596.732 1780.17 596.731C1777.09 596.731 1774.6 599.225 1774.6 602.3M1780.17 607.87C1777.09 607.87 1774.6 605.376 1774.6 602.3M1774.6 602.3L1758.82 602.299L1746.75 602.298" stroke="white" stroke-width="5.5692"/>
</g>
<g filter="url(#filter40_d_110_88)">
<rect x="1656.69" y="979.861" width="207.917" height="207.917" rx="44.5536" fill="#C0C0C0" shape-rendering="crispEdges"/>
<path d="M1774.56 1103.32C1774.56 1106.4 1777.06 1108.89 1780.13 1108.89C1783.21 1108.89 1785.7 1106.4 1785.7 1103.32C1785.7 1100.25 1783.21 1097.75 1780.13 1097.75C1777.06 1097.75 1774.56 1100.24 1774.56 1103.32ZM1774.56 1103.32L1760.64 1103.32L1746.72 1103.32M1741.15 1069.9L1741.15 1083.83L1741.15 1097.75M1741.15 1069.9C1744.23 1069.9 1746.72 1067.41 1746.72 1064.33M1741.15 1069.9C1738.07 1069.9 1735.58 1067.41 1735.58 1064.33C1735.58 1061.26 1738.08 1058.76 1741.15 1058.76C1744.23 1058.76 1746.72 1061.26 1746.72 1064.33M1741.15 1097.75C1738.07 1097.75 1735.58 1100.24 1735.58 1103.32C1735.58 1106.39 1738.07 1108.89 1741.15 1108.89C1744.22 1108.89 1746.72 1106.39 1746.72 1103.32M1741.15 1097.75C1744.22 1097.75 1746.72 1100.24 1746.72 1103.32M1780.15 1097.75L1780.13 1083.83L1780.13 1069.91M1780.13 1069.91C1783.21 1069.91 1785.7 1067.41 1785.7 1064.34C1785.7 1061.26 1783.21 1058.77 1780.14 1058.77C1777.06 1058.77 1774.57 1061.26 1774.57 1064.34M1780.13 1069.91C1777.06 1069.91 1774.57 1067.41 1774.57 1064.34M1774.57 1064.34L1758.79 1064.33L1746.72 1064.33" stroke="white" stroke-width="5.5692"/>
</g>
<g filter="url(#filter41_d_110_88)">
<rect x="963.699" y="55.7454" width="207.917" height="207.917" rx="44.5536" fill="#C0C0C0" shape-rendering="crispEdges"/>
<rect x="1042.59" y="143.001" width="50.1228" height="41.769" rx="7.4256" stroke="white" stroke-width="5.5692" stroke-linejoin="round"/>
<path d="M1055.59 134.648L1055.58 143.002" stroke="white" stroke-width="5.5692" stroke-linecap="round"/>
<path d="M1079.72 134.65L1079.72 143.004" stroke="white" stroke-width="5.5692" stroke-linecap="round"/>
<path d="M1042.59 155.068L1092.71 155.071" stroke="white" stroke-width="5.5692"/>
</g>
</g>
<g filter="url(#filter42_d_110_88)">
<path fill-rule="evenodd" clip-rule="evenodd" d="M-472 1138.98L-352.667 1106.21C-233.333 1073.45 5.33334 1007.92 244 907.894C482.667 807.872 721.333 676.809 960 709.575C1198.67 742.341 1437.33 940.659 1676 925.139C1914.67 907.894 2153.33 676.809 2272.67 559.542L2392 444V1239H2272.67C2153.33 1239 1914.67 1239 1676 1239C1437.33 1239 1198.67 1239 960 1239C721.333 1239 482.667 1239 244 1239C5.33334 1239 -233.333 1239 -352.667 1239H-472V1138.98Z" fill="#A78AFE"/>
<path fill-rule="evenodd" clip-rule="evenodd" d="M-472 1138.98L-352.667 1106.21C-233.333 1073.45 5.33334 1007.92 244 907.894C482.667 807.872 721.333 676.809 960 709.575C1198.67 742.341 1437.33 940.659 1676 925.139C1914.67 907.894 2153.33 676.809 2272.67 559.542L2392 444V1239H2272.67C2153.33 1239 1914.67 1239 1676 1239C1437.33 1239 1198.67 1239 960 1239C721.333 1239 482.667 1239 244 1239C5.33334 1239 -233.333 1239 -352.667 1239H-472V1138.98Z" stroke="black"/>
</g>
<g filter="url(#filter43_d_110_88)">
<path fill-rule="evenodd" clip-rule="evenodd" d="M-472 1138.98L-352.667 1106.21C-233.333 1073.45 5.33334 1007.92 244 907.894C482.667 807.872 721.333 676.809 960 709.575C1198.67 742.341 1437.33 940.659 1676 925.139C1914.67 907.894 2153.33 676.809 2272.67 559.542L2392 444V1239H2272.67C2153.33 1239 1914.67 1239 1676 1239C1437.33 1239 1198.67 1239 960 1239C721.333 1239 482.667 1239 244 1239C5.33334 1239 -233.333 1239 -352.667 1239H-472V1138.98Z" fill="#A78AFE"/>
<path fill-rule="evenodd" clip-rule="evenodd" d="M-472 1138.98L-352.667 1106.21C-233.333 1073.45 5.33334 1007.92 244 907.894C482.667 807.872 721.333 676.809 960 709.575C1198.67 742.341 1437.33 940.659 1676 925.139C1914.67 907.894 2153.33 676.809 2272.67 559.542L2392 444V1239H2272.67C2153.33 1239 1914.67 1239 1676 1239C1437.33 1239 1198.67 1239 960 1239C721.333 1239 482.667 1239 244 1239C5.33334 1239 -233.333 1239 -352.667 1239H-472V1138.98Z" stroke="black"/>
</g>
</g>
<defs>
<filter id="filter0_d_110_88" x="51.0688" y="53.0063" width="429.252" height="433.283" filterUnits="userSpaceOnUse" color-interpolation-filters="sRGB">
<feFlood flood-opacity="0" result="BackgroundImageFix"/>
<feColorMatrix in="SourceAlpha" type="matrix" values="0 0 0 0 0 0 0 0 0 0 0 0 0 0 0 0 0 0 127 0" result="hardAlpha"/>
<feOffset dy="8"/>
<feGaussianBlur stdDeviation="2"/>
<feComposite in2="hardAlpha" operator="out"/>
<feColorMatrix type="matrix" values="0 0 0 0 0 0 0 0 0 0 0 0 0 0 0 0 0 0 0.25 0"/>
<feBlend mode="normal" in2="BackgroundImageFix" result="effect1_dropShadow_110_88"/>
<feBlend mode="normal" in="SourceGraphic" in2="effect1_dropShadow_110_88" result="shape"/>
</filter>
<filter id="filter1_d_110_88" x="51.0381" y="284.039" width="429.283" height="433.252" filterUnits="userSpaceOnUse" color-interpolation-filters="sRGB">
<feFlood flood-opacity="0" result="BackgroundImageFix"/>
<feColorMatrix in="SourceAlpha" type="matrix" values="0 0 0 0 0 0 0 0 0 0 0 0 0 0 0 0 0 0 127 0" result="hardAlpha"/>
<feOffset dy="8"/>
<feGaussianBlur stdDeviation="2"/>
<feComposite in2="hardAlpha" operator="out"/>
<feColorMatrix type="matrix" values="0 0 0 0 0 0 0 0 0 0 0 0 0 0 0 0 0 0 0.25 0"/>
<feBlend mode="normal" in2="BackgroundImageFix" result="effect1_dropShadow_110_88"/>
<feBlend mode="normal" in="SourceGraphic" in2="effect1_dropShadow_110_88" result="shape"/>
</filter>
<filter id="filter2_d_110_88" x="513.073" y="284.07" width="429.283" height="433.252" filterUnits="userSpaceOnUse" color-interpolation-filters="sRGB">
<feFlood flood-opacity="0" result="BackgroundImageFix"/>
<feColorMatrix in="SourceAlpha" type="matrix" values="0 0 0 0 0 0 0 0 0 0 0 0 0 0 0 0 0 0 127 0" result="hardAlpha"/>
<feOffset dy="8"/>
<feGaussianBlur stdDeviation="2"/>
<feComposite in2="hardAlpha" operator="out"/>
<feColorMatrix type="matrix" values="0 0 0 0 0 0 0 0 0 0 0 0 0 0 0 0 0 0 0.25 0"/>
<feBlend mode="normal" in2="BackgroundImageFix" result="effect1_dropShadow_110_88"/>
<feBlend mode="normal" in="SourceGraphic" in2="effect1_dropShadow_110_88" result="shape"/>
</filter>
<filter id="filter3_d_110_88" x="51.0381" y="515.042" width="429.252" height="433.283" filterUnits="userSpaceOnUse" color-interpolation-filters="sRGB">
<feFlood flood-opacity="0" result="BackgroundImageFix"/>
<feColorMatrix in="SourceAlpha" type="matrix" values="0 0 0 0 0 0 0 0 0 0 0 0 0 0 0 0 0 0 127 0" result="hardAlpha"/>
<feOffset dy="8"/>
<feGaussianBlur stdDeviation="2"/>
<feComposite in2="hardAlpha" operator="out"/>
<feColorMatrix type="matrix" values="0 0 0 0 0 0 0 0 0 0 0 0 0 0 0 0 0 0 0.25 0"/>
<feBlend mode="normal" in2="BackgroundImageFix" result="effect1_dropShadow_110_88"/>
<feBlend mode="normal" in="SourceGraphic" in2="effect1_dropShadow_110_88" result="shape"/>
</filter>
<filter id="filter4_d_110_88" x="51.0075" y="746.075" width="429.283" height="433.252" filterUnits="userSpaceOnUse" color-interpolation-filters="sRGB">
<feFlood flood-opacity="0" result="BackgroundImageFix"/>
<feColorMatrix in="SourceAlpha" type="matrix" values="0 0 0 0 0 0 0 0 0 0 0 0 0 0 0 0 0 0 127 0" result="hardAlpha"/>
<feOffset dy="8"/>
<feGaussianBlur stdDeviation="2"/>
<feComposite in2="hardAlpha" operator="out"/>
<feColorMatrix type="matrix" values="0 0 0 0 0 0 0 0 0 0 0 0 0 0 0 0 0 0 0.25 0"/>
<feBlend mode="normal" in2="BackgroundImageFix" result="effect1_dropShadow_110_88"/>
<feBlend mode="normal" in="SourceGraphic" in2="effect1_dropShadow_110_88" result="shape"/>
</filter>
<filter id="filter5_d_110_88" x="513.043" y="746.105" width="429.283" height="433.252" filterUnits="userSpaceOnUse" color-interpolation-filters="sRGB">
<feFlood flood-opacity="0" result="BackgroundImageFix"/>
<feColorMatrix in="SourceAlpha" type="matrix" values="0 0 0 0 0 0 0 0 0 0 0 0 0 0 0 0 0 0 127 0" result="hardAlpha"/>
<feOffset dy="8"/>
<feGaussianBlur stdDeviation="2"/>
<feComposite in2="hardAlpha" operator="out"/>
<feColorMatrix type="matrix" values="0 0 0 0 0 0 0 0 0 0 0 0 0 0 0 0 0 0 0.25 0"/>
<feBlend mode="normal" in2="BackgroundImageFix" result="effect1_dropShadow_110_88"/>
<feBlend mode="normal" in="SourceGraphic" in2="effect1_dropShadow_110_88" result="shape"/>
</filter>
<filter id="filter6_d_110_88" x="513.104" y="53.0369" width="429.252" height="433.283" filterUnits="userSpaceOnUse" color-interpolation-filters="sRGB">
<feFlood flood-opacity="0" result="BackgroundImageFix"/>
<feColorMatrix in="SourceAlpha" type="matrix" values="0 0 0 0 0 0 0 0 0 0 0 0 0 0 0 0 0 0 127 0" result="hardAlpha"/>
<feOffset dy="8"/>
<feGaussianBlur stdDeviation="2"/>
<feComposite in2="hardAlpha" operator="out"/>
<feColorMatrix type="matrix" values="0 0 0 0 0 0 0 0 0 0 0 0 0 0 0 0 0 0 0.25 0"/>
<feBlend mode="normal" in2="BackgroundImageFix" result="effect1_dropShadow_110_88"/>
<feBlend mode="normal" in="SourceGraphic" in2="effect1_dropShadow_110_88" result="shape"/>
</filter>
<filter id="filter7_d_110_88" x="513.073" y="515.072" width="429.252" height="433.282" filterUnits="userSpaceOnUse" color-interpolation-filters="sRGB">
<feFlood flood-opacity="0" result="BackgroundImageFix"/>
<feColorMatrix in="SourceAlpha" type="matrix" values="0 0 0 0 0 0 0 0 0 0 0 0 0 0 0 0 0 0 127 0" result="hardAlpha"/>
<feOffset dy="8"/>
<feGaussianBlur stdDeviation="2"/>
<feComposite in2="hardAlpha" operator="out"/>
<feColorMatrix type="matrix" values="0 0 0 0 0 0 0 0 0 0 0 0 0 0 0 0 0 0 0.25 0"/>
<feBlend mode="normal" in2="BackgroundImageFix" result="effect1_dropShadow_110_88"/>
<feBlend mode="normal" in="SourceGraphic" in2="effect1_dropShadow_110_88" result="shape"/>
</filter>
<filter id="filter8_d_110_88" x="51.0306" y="515.035" width="215.931" height="219.93" filterUnits="userSpaceOnUse" color-interpolation-filters="sRGB">
<feFlood flood-opacity="0" result="BackgroundImageFix"/>
<feColorMatrix in="SourceAlpha" type="matrix" values="0 0 0 0 0 0 0 0 0 0 0 0 0 0 0 0 0 0 127 0" result="hardAlpha"/>
<feOffset dy="8"/>
<feGaussianBlur stdDeviation="2"/>
<feComposite in2="hardAlpha" operator="out"/>
<feColorMatrix type="matrix" values="0 0 0 0 0 0 0 0 0 0 0 0 0 0 0 0 0 0 0.25 0"/>
<feBlend mode="normal" in2="BackgroundImageFix" result="effect1_dropShadow_110_88"/>
<feBlend mode="normal" in="SourceGraphic" in2="effect1_dropShadow_110_88" result="shape"/>
</filter>
<filter id="filter9_d_110_88" x="51" y="977.07" width="215.931" height="219.931" filterUnits="userSpaceOnUse" color-interpolation-filters="sRGB">
<feFlood flood-opacity="0" result="BackgroundImageFix"/>
<feColorMatrix in="SourceAlpha" type="matrix" values="0 0 0 0 0 0 0 0 0 0 0 0 0 0 0 0 0 0 127 0" result="hardAlpha"/>
<feOffset dy="8"/>
<feGaussianBlur stdDeviation="2"/>
<feComposite in2="hardAlpha" operator="out"/>
<feColorMatrix type="matrix" values="0 0 0 0 0 0 0 0 0 0 0 0 0 0 0 0 0 0 0.25 0"/>
<feBlend mode="normal" in2="BackgroundImageFix" result="effect1_dropShadow_110_88"/>
<feBlend mode="normal" in="SourceGraphic" in2="effect1_dropShadow_110_88" result="shape"/>
</filter>
<filter id="filter10_d_110_88" x="282.064" y="284.033" width="215.931" height="219.93" filterUnits="userSpaceOnUse" color-interpolation-filters="sRGB">
<feFlood flood-opacity="0" result="BackgroundImageFix"/>
<feColorMatrix in="SourceAlpha" type="matrix" values="0 0 0 0 0 0 0 0 0 0 0 0 0 0 0 0 0 0 127 0" result="hardAlpha"/>
<feOffset dy="8"/>
<feGaussianBlur stdDeviation="2"/>
<feComposite in2="hardAlpha" operator="out"/>
<feColorMatrix type="matrix" values="0 0 0 0 0 0 0 0 0 0 0 0 0 0 0 0 0 0 0.25 0"/>
<feBlend mode="normal" in2="BackgroundImageFix" result="effect1_dropShadow_110_88"/>
<feBlend mode="normal" in="SourceGraphic" in2="effect1_dropShadow_110_88" result="shape"/>
</filter>
<filter id="filter11_d_110_88" x="282.033" y="746.068" width="215.931" height="219.93" filterUnits="userSpaceOnUse" color-interpolation-filters="sRGB">
<feFlood flood-opacity="0" result="BackgroundImageFix"/>
<feColorMatrix in="SourceAlpha" type="matrix" values="0 0 0 0 0 0 0 0 0 0 0 0 0 0 0 0 0 0 127 0" result="hardAlpha"/>
<feOffset dy="8"/>
<feGaussianBlur stdDeviation="2"/>
<feComposite in2="hardAlpha" operator="out"/>
<feColorMatrix type="matrix" values="0 0 0 0 0 0 0 0 0 0 0 0 0 0 0 0 0 0 0.25 0"/>
<feBlend mode="normal" in2="BackgroundImageFix" result="effect1_dropShadow_110_88"/>
<feBlend mode="normal" in="SourceGraphic" in2="effect1_dropShadow_110_88" result="shape"/>
</filter>
<filter id="filter12_d_110_88" x="513.096" y="53.0305" width="215.931" height="219.93" filterUnits="userSpaceOnUse" color-interpolation-filters="sRGB">
<feFlood flood-opacity="0" result="BackgroundImageFix"/>
<feColorMatrix in="SourceAlpha" type="matrix" values="0 0 0 0 0 0 0 0 0 0 0 0 0 0 0 0 0 0 127 0" result="hardAlpha"/>
<feOffset dy="8"/>
<feGaussianBlur stdDeviation="2"/>
<feComposite in2="hardAlpha" operator="out"/>
<feColorMatrix type="matrix" values="0 0 0 0 0 0 0 0 0 0 0 0 0 0 0 0 0 0 0.25 0"/>
<feBlend mode="normal" in2="BackgroundImageFix" result="effect1_dropShadow_110_88"/>
<feBlend mode="normal" in="SourceGraphic" in2="effect1_dropShadow_110_88" result="shape"/>
</filter>
<filter id="filter13_d_110_88" x="513.066" y="515.066" width="215.931" height="219.93" filterUnits="userSpaceOnUse" color-interpolation-filters="sRGB">
<feFlood flood-opacity="0" result="BackgroundImageFix"/>
<feColorMatrix in="SourceAlpha" type="matrix" values="0 0 0 0 0 0 0 0 0 0 0 0 0 0 0 0 0 0 127 0" result="hardAlpha"/>
<feOffset dy="8"/>
<feGaussianBlur stdDeviation="2"/>
<feComposite in2="hardAlpha" operator="out"/>
<feColorMatrix type="matrix" values="0 0 0 0 0 0 0 0 0 0 0 0 0 0 0 0 0 0 0.25 0"/>
<feBlend mode="normal" in2="BackgroundImageFix" result="effect1_dropShadow_110_88"/>
<feBlend mode="normal" in="SourceGraphic" in2="effect1_dropShadow_110_88" result="shape"/>
</filter>
<filter id="filter14_d_110_88" x="513.035" y="977.101" width="215.931" height="219.931" filterUnits="userSpaceOnUse" color-interpolation-filters="sRGB">
<feFlood flood-opacity="0" result="BackgroundImageFix"/>
<feColorMatrix in="SourceAlpha" type="matrix" values="0 0 0 0 0 0 0 0 0 0 0 0 0 0 0 0 0 0 127 0" result="hardAlpha"/>
<feOffset dy="8"/>
<feGaussianBlur stdDeviation="2"/>
<feComposite in2="hardAlpha" operator="out"/>
<feColorMatrix type="matrix" values="0 0 0 0 0 0 0 0 0 0 0 0 0 0 0 0 0 0 0.25 0"/>
<feBlend mode="normal" in2="BackgroundImageFix" result="effect1_dropShadow_110_88"/>
<feBlend mode="normal" in="SourceGraphic" in2="effect1_dropShadow_110_88" result="shape"/>
</filter>
<filter id="filter15_d_110_88" x="744.114" y="53.0459" width="215.931" height="219.93" filterUnits="userSpaceOnUse" color-interpolation-filters="sRGB">
<feFlood flood-opacity="0" result="BackgroundImageFix"/>
<feColorMatrix in="SourceAlpha" type="matrix" values="0 0 0 0 0 0 0 0 0 0 0 0 0 0 0 0 0 0 127 0" result="hardAlpha"/>
<feOffset dy="8"/>
<feGaussianBlur stdDeviation="2"/>
<feComposite in2="hardAlpha" operator="out"/>
<feColorMatrix type="matrix" values="0 0 0 0 0 0 0 0 0 0 0 0 0 0 0 0 0 0 0.25 0"/>
<feBlend mode="normal" in2="BackgroundImageFix" result="effect1_dropShadow_110_88"/>
<feBlend mode="normal" in="SourceGraphic" in2="effect1_dropShadow_110_88" result="shape"/>
</filter>
<filter id="filter16_d_110_88" x="744.099" y="284.063" width="215.931" height="219.93" filterUnits="userSpaceOnUse" color-interpolation-filters="sRGB">
<feFlood flood-opacity="0" result="BackgroundImageFix"/>
<feColorMatrix in="SourceAlpha" type="matrix" values="0 0 0 0 0 0 0 0 0 0 0 0 0 0 0 0 0 0 127 0" result="hardAlpha"/>
<feOffset dy="8"/>
<feGaussianBlur stdDeviation="2"/>
<feComposite in2="hardAlpha" operator="out"/>
<feColorMatrix type="matrix" values="0 0 0 0 0 0 0 0 0 0 0 0 0 0 0 0 0 0 0.25 0"/>
<feBlend mode="normal" in2="BackgroundImageFix" result="effect1_dropShadow_110_88"/>
<feBlend mode="normal" in="SourceGraphic" in2="effect1_dropShadow_110_88" result="shape"/>
</filter>
<filter id="filter17_d_110_88" x="744.068" y="746.099" width="215.931" height="219.93" filterUnits="userSpaceOnUse" color-interpolation-filters="sRGB">
<feFlood flood-opacity="0" result="BackgroundImageFix"/>
<feColorMatrix in="SourceAlpha" type="matrix" values="0 0 0 0 0 0 0 0 0 0 0 0 0 0 0 0 0 0 127 0" result="hardAlpha"/>
<feOffset dy="8"/>
<feGaussianBlur stdDeviation="2"/>
<feComposite in2="hardAlpha" operator="out"/>
<feColorMatrix type="matrix" values="0 0 0 0 0 0 0 0 0 0 0 0 0 0 0 0 0 0 0.25 0"/>
<feBlend mode="normal" in2="BackgroundImageFix" result="effect1_dropShadow_110_88"/>
<feBlend mode="normal" in="SourceGraphic" in2="effect1_dropShadow_110_88" result="shape"/>
</filter>
<filter id="filter18_d_110_88" x="744.083" y="515.081" width="215.931" height="219.93" filterUnits="userSpaceOnUse" color-interpolation-filters="sRGB">
<feFlood flood-opacity="0" result="BackgroundImageFix"/>
<feColorMatrix in="SourceAlpha" type="matrix" values="0 0 0 0 0 0 0 0 0 0 0 0 0 0 0 0 0 0 127 0" result="hardAlpha"/>
<feOffset dy="8"/>
<feGaussianBlur stdDeviation="2"/>
<feComposite in2="hardAlpha" operator="out"/>
<feColorMatrix type="matrix" values="0 0 0 0 0 0 0 0 0 0 0 0 0 0 0 0 0 0 0.25 0"/>
<feBlend mode="normal" in2="BackgroundImageFix" result="effect1_dropShadow_110_88"/>
<feBlend mode="normal" in="SourceGraphic" in2="effect1_dropShadow_110_88" result="shape"/>
</filter>
<filter id="filter19_d_110_88" x="744.053" y="977.116" width="215.931" height="219.931" filterUnits="userSpaceOnUse" color-interpolation-filters="sRGB">
<feFlood flood-opacity="0" result="BackgroundImageFix"/>
<feColorMatrix in="SourceAlpha" type="matrix" values="0 0 0 0 0 0 0 0 0 0 0 0 0 0 0 0 0 0 127 0" result="hardAlpha"/>
<feOffset dy="8"/>
<feGaussianBlur stdDeviation="2"/>
<feComposite in2="hardAlpha" operator="out"/>
<feColorMatrix type="matrix" values="0 0 0 0 0 0 0 0 0 0 0 0 0 0 0 0 0 0 0.25 0"/>
<feBlend mode="normal" in2="BackgroundImageFix" result="effect1_dropShadow_110_88"/>
<feBlend mode="normal" in="SourceGraphic" in2="effect1_dropShadow_110_88" result="shape"/>
</filter>
<filter id="filter20_d_110_88" x="51.0613" y="53.0002" width="215.931" height="219.93" filterUnits="userSpaceOnUse" color-interpolation-filters="sRGB">
<feFlood flood-opacity="0" result="BackgroundImageFix"/>
<feColorMatrix in="SourceAlpha" type="matrix" values="0 0 0 0 0 0 0 0 0 0 0 0 0 0 0 0 0 0 127 0" result="hardAlpha"/>
<feOffset dy="8"/>
<feGaussianBlur stdDeviation="2"/>
<feComposite in2="hardAlpha" operator="out"/>
<feColorMatrix type="matrix" values="0 0 0 0 0 0 0 0 0 0 0 0 0 0 0 0 0 0 0.25 0"/>
<feBlend mode="normal" in2="BackgroundImageFix" result="effect1_dropShadow_110_88"/>
<feBlend mode="normal" in="SourceGraphic" in2="effect1_dropShadow_110_88" result="shape"/>
</filter>
<filter id="filter21_d_110_88" x="959.692" y="55.7515" width="429.252" height="433.283" filterUnits="userSpaceOnUse" color-interpolation-filters="sRGB">
<feFlood flood-opacity="0" result="BackgroundImageFix"/>
<feColorMatrix in="SourceAlpha" type="matrix" values="0 0 0 0 0 0 0 0 0 0 0 0 0 0 0 0 0 0 127 0" result="hardAlpha"/>
<feOffset dy="8"/>
<feGaussianBlur stdDeviation="2"/>
<feComposite in2="hardAlpha" operator="out"/>
<feColorMatrix type="matrix" values="0 0 0 0 0 0 0 0 0 0 0 0 0 0 0 0 0 0 0.25 0"/>
<feBlend mode="normal" in2="BackgroundImageFix" result="effect1_dropShadow_110_88"/>
<feBlend mode="normal" in="SourceGraphic" in2="effect1_dropShadow_110_88" result="shape"/>
</filter>
<filter id="filter22_d_110_88" x="959.662" y="286.784" width="429.283" height="433.252" filterUnits="userSpaceOnUse" color-interpolation-filters="sRGB">
<feFlood flood-opacity="0" result="BackgroundImageFix"/>
<feColorMatrix in="SourceAlpha" type="matrix" values="0 0 0 0 0 0 0 0 0 0 0 0 0 0 0 0 0 0 127 0" result="hardAlpha"/>
<feOffset dy="8"/>
<feGaussianBlur stdDeviation="2"/>
<feComposite in2="hardAlpha" operator="out"/>
<feColorMatrix type="matrix" values="0 0 0 0 0 0 0 0 0 0 0 0 0 0 0 0 0 0 0.25 0"/>
<feBlend mode="normal" in2="BackgroundImageFix" result="effect1_dropShadow_110_88"/>
<feBlend mode="normal" in="SourceGraphic" in2="effect1_dropShadow_110_88" result="shape"/>
</filter>
<filter id="filter23_d_110_88" x="1421.7" y="286.815" width="429.283" height="433.252" filterUnits="userSpaceOnUse" color-interpolation-filters="sRGB">
<feFlood flood-opacity="0" result="BackgroundImageFix"/>
<feColorMatrix in="SourceAlpha" type="matrix" values="0 0 0 0 0 0 0 0 0 0 0 0 0 0 0 0 0 0 127 0" result="hardAlpha"/>
<feOffset dy="8"/>
<feGaussianBlur stdDeviation="2"/>
<feComposite in2="hardAlpha" operator="out"/>
<feColorMatrix type="matrix" values="0 0 0 0 0 0 0 0 0 0 0 0 0 0 0 0 0 0 0.25 0"/>
<feBlend mode="normal" in2="BackgroundImageFix" result="effect1_dropShadow_110_88"/>
<feBlend mode="normal" in="SourceGraphic" in2="effect1_dropShadow_110_88" result="shape"/>
</filter>
<filter id="filter24_d_110_88" x="959.662" y="517.787" width="429.252" height="433.283" filterUnits="userSpaceOnUse" color-interpolation-filters="sRGB">
<feFlood flood-opacity="0" result="BackgroundImageFix"/>
<feColorMatrix in="SourceAlpha" type="matrix" values="0 0 0 0 0 0 0 0 0 0 0 0 0 0 0 0 0 0 127 0" result="hardAlpha"/>
<feOffset dy="8"/>
<feGaussianBlur stdDeviation="2"/>
<feComposite in2="hardAlpha" operator="out"/>
<feColorMatrix type="matrix" values="0 0 0 0 0 0 0 0 0 0 0 0 0 0 0 0 0 0 0.25 0"/>
<feBlend mode="normal" in2="BackgroundImageFix" result="effect1_dropShadow_110_88"/>
<feBlend mode="normal" in="SourceGraphic" in2="effect1_dropShadow_110_88" result="shape"/>
</filter>
<filter id="filter25_d_110_88" x="959.631" y="748.82" width="429.283" height="433.252" filterUnits="userSpaceOnUse" color-interpolation-filters="sRGB">
<feFlood flood-opacity="0" result="BackgroundImageFix"/>
<feColorMatrix in="SourceAlpha" type="matrix" values="0 0 0 0 0 0 0 0 0 0 0 0 0 0 0 0 0 0 127 0" result="hardAlpha"/>
<feOffset dy="8"/>
<feGaussianBlur stdDeviation="2"/>
<feComposite in2="hardAlpha" operator="out"/>
<feColorMatrix type="matrix" values="0 0 0 0 0 0 0 0 0 0 0 0 0 0 0 0 0 0 0.25 0"/>
<feBlend mode="normal" in2="BackgroundImageFix" result="effect1_dropShadow_110_88"/>
<feBlend mode="normal" in="SourceGraphic" in2="effect1_dropShadow_110_88" result="shape"/>
</filter>
<filter id="filter26_d_110_88" x="1421.67" y="748.85" width="429.283" height="433.252" filterUnits="userSpaceOnUse" color-interpolation-filters="sRGB">
<feFlood flood-opacity="0" result="BackgroundImageFix"/>
<feColorMatrix in="SourceAlpha" type="matrix" values="0 0 0 0 0 0 0 0 0 0 0 0 0 0 0 0 0 0 127 0" result="hardAlpha"/>
<feOffset dy="8"/>
<feGaussianBlur stdDeviation="2"/>
<feComposite in2="hardAlpha" operator="out"/>
<feColorMatrix type="matrix" values="0 0 0 0 0 0 0 0 0 0 0 0 0 0 0 0 0 0 0.25 0"/>
<feBlend mode="normal" in2="BackgroundImageFix" result="effect1_dropShadow_110_88"/>
<feBlend mode="normal" in="SourceGraphic" in2="effect1_dropShadow_110_88" result="shape"/>
</filter>
<filter id="filter27_d_110_88" x="1421.73" y="55.782" width="429.252" height="433.283" filterUnits="userSpaceOnUse" color-interpolation-filters="sRGB">
<feFlood flood-opacity="0" result="BackgroundImageFix"/>
<feColorMatrix in="SourceAlpha" type="matrix" values="0 0 0 0 0 0 0 0 0 0 0 0 0 0 0 0 0 0 127 0" result="hardAlpha"/>
<feOffset dy="8"/>
<feGaussianBlur stdDeviation="2"/>
<feComposite in2="hardAlpha" operator="out"/>
<feColorMatrix type="matrix" values="0 0 0 0 0 0 0 0 0 0 0 0 0 0 0 0 0 0 0.25 0"/>
<feBlend mode="normal" in2="BackgroundImageFix" result="effect1_dropShadow_110_88"/>
<feBlend mode="normal" in="SourceGraphic" in2="effect1_dropShadow_110_88" result="shape"/>
</filter>
<filter id="filter28_d_110_88" x="1421.7" y="517.817" width="429.252" height="433.283" filterUnits="userSpaceOnUse" color-interpolation-filters="sRGB">
<feFlood flood-opacity="0" result="BackgroundImageFix"/>
<feColorMatrix in="SourceAlpha" type="matrix" values="0 0 0 0 0 0 0 0 0 0 0 0 0 0 0 0 0 0 127 0" result="hardAlpha"/>
<feOffset dy="8"/>
<feGaussianBlur stdDeviation="2"/>
<feComposite in2="hardAlpha" operator="out"/>
<feColorMatrix type="matrix" values="0 0 0 0 0 0 0 0 0 0 0 0 0 0 0 0 0 0 0.25 0"/>
<feBlend mode="normal" in2="BackgroundImageFix" result="effect1_dropShadow_110_88"/>
<feBlend mode="normal" in="SourceGraphic" in2="effect1_dropShadow_110_88" result="shape"/>
</filter>
<filter id="filter29_d_110_88" x="959.654" y="517.78" width="215.931" height="219.93" filterUnits="userSpaceOnUse" color-interpolation-filters="sRGB">
<feFlood flood-opacity="0" result="BackgroundImageFix"/>
<feColorMatrix in="SourceAlpha" type="matrix" values="0 0 0 0 0 0 0 0 0 0 0 0 0 0 0 0 0 0 127 0" result="hardAlpha"/>
<feOffset dy="8"/>
<feGaussianBlur stdDeviation="2"/>
<feComposite in2="hardAlpha" operator="out"/>
<feColorMatrix type="matrix" values="0 0 0 0 0 0 0 0 0 0 0 0 0 0 0 0 0 0 0.25 0"/>
<feBlend mode="normal" in2="BackgroundImageFix" result="effect1_dropShadow_110_88"/>
<feBlend mode="normal" in="SourceGraphic" in2="effect1_dropShadow_110_88" result="shape"/>
</filter>
<filter id="filter30_d_110_88" x="959.623" y="979.815" width="215.93" height="219.931" filterUnits="userSpaceOnUse" color-interpolation-filters="sRGB">
<feFlood flood-opacity="0" result="BackgroundImageFix"/>
<feColorMatrix in="SourceAlpha" type="matrix" values="0 0 0 0 0 0 0 0 0 0 0 0 0 0 0 0 0 0 127 0" result="hardAlpha"/>
<feOffset dy="8"/>
<feGaussianBlur stdDeviation="2"/>
<feComposite in2="hardAlpha" operator="out"/>
<feColorMatrix type="matrix" values="0 0 0 0 0 0 0 0 0 0 0 0 0 0 0 0 0 0 0.25 0"/>
<feBlend mode="normal" in2="BackgroundImageFix" result="effect1_dropShadow_110_88"/>
<feBlend mode="normal" in="SourceGraphic" in2="effect1_dropShadow_110_88" result="shape"/>
</filter>
<filter id="filter31_d_110_88" x="1190.69" y="286.778" width="215.931" height="219.93" filterUnits="userSpaceOnUse" color-interpolation-filters="sRGB">
<feFlood flood-opacity="0" result="BackgroundImageFix"/>
<feColorMatrix in="SourceAlpha" type="matrix" values="0 0 0 0 0 0 0 0 0 0 0 0 0 0 0 0 0 0 127 0" result="hardAlpha"/>
<feOffset dy="8"/>
<feGaussianBlur stdDeviation="2"/>
<feComposite in2="hardAlpha" operator="out"/>
<feColorMatrix type="matrix" values="0 0 0 0 0 0 0 0 0 0 0 0 0 0 0 0 0 0 0.25 0"/>
<feBlend mode="normal" in2="BackgroundImageFix" result="effect1_dropShadow_110_88"/>
<feBlend mode="normal" in="SourceGraphic" in2="effect1_dropShadow_110_88" result="shape"/>
</filter>
<filter id="filter32_d_110_88" x="1190.66" y="748.813" width="215.931" height="219.93" filterUnits="userSpaceOnUse" color-interpolation-filters="sRGB">
<feFlood flood-opacity="0" result="BackgroundImageFix"/>
<feColorMatrix in="SourceAlpha" type="matrix" values="0 0 0 0 0 0 0 0 0 0 0 0 0 0 0 0 0 0 127 0" result="hardAlpha"/>
<feOffset dy="8"/>
<feGaussianBlur stdDeviation="2"/>
<feComposite in2="hardAlpha" operator="out"/>
<feColorMatrix type="matrix" values="0 0 0 0 0 0 0 0 0 0 0 0 0 0 0 0 0 0 0.25 0"/>
<feBlend mode="normal" in2="BackgroundImageFix" result="effect1_dropShadow_110_88"/>
<feBlend mode="normal" in="SourceGraphic" in2="effect1_dropShadow_110_88" result="shape"/>
</filter>
<filter id="filter33_d_110_88" x="1421.72" y="55.7756" width="215.931" height="219.93" filterUnits="userSpaceOnUse" color-interpolation-filters="sRGB">
<feFlood flood-opacity="0" result="BackgroundImageFix"/>
<feColorMatrix in="SourceAlpha" type="matrix" values="0 0 0 0 0 0 0 0 0 0 0 0 0 0 0 0 0 0 127 0" result="hardAlpha"/>
<feOffset dy="8"/>
<feGaussianBlur stdDeviation="2"/>
<feComposite in2="hardAlpha" operator="out"/>
<feColorMatrix type="matrix" values="0 0 0 0 0 0 0 0 0 0 0 0 0 0 0 0 0 0 0.25 0"/>
<feBlend mode="normal" in2="BackgroundImageFix" result="effect1_dropShadow_110_88"/>
<feBlend mode="normal" in="SourceGraphic" in2="effect1_dropShadow_110_88" result="shape"/>
</filter>
<filter id="filter34_d_110_88" x="1421.69" y="517.811" width="215.931" height="219.93" filterUnits="userSpaceOnUse" color-interpolation-filters="sRGB">
<feFlood flood-opacity="0" result="BackgroundImageFix"/>
<feColorMatrix in="SourceAlpha" type="matrix" values="0 0 0 0 0 0 0 0 0 0 0 0 0 0 0 0 0 0 127 0" result="hardAlpha"/>
<feOffset dy="8"/>
<feGaussianBlur stdDeviation="2"/>
<feComposite in2="hardAlpha" operator="out"/>
<feColorMatrix type="matrix" values="0 0 0 0 0 0 0 0 0 0 0 0 0 0 0 0 0 0 0.25 0"/>
<feBlend mode="normal" in2="BackgroundImageFix" result="effect1_dropShadow_110_88"/>
<feBlend mode="normal" in="SourceGraphic" in2="effect1_dropShadow_110_88" result="shape"/>
</filter>
<filter id="filter35_d_110_88" x="1421.66" y="979.846" width="215.931" height="219.931" filterUnits="userSpaceOnUse" color-interpolation-filters="sRGB">
<feFlood flood-opacity="0" result="BackgroundImageFix"/>
<feColorMatrix in="SourceAlpha" type="matrix" values="0 0 0 0 0 0 0 0 0 0 0 0 0 0 0 0 0 0 127 0" result="hardAlpha"/>
<feOffset dy="8"/>
<feGaussianBlur stdDeviation="2"/>
<feComposite in2="hardAlpha" operator="out"/>
<feColorMatrix type="matrix" values="0 0 0 0 0 0 0 0 0 0 0 0 0 0 0 0 0 0 0.25 0"/>
<feBlend mode="normal" in2="BackgroundImageFix" result="effect1_dropShadow_110_88"/>
<feBlend mode="normal" in="SourceGraphic" in2="effect1_dropShadow_110_88" result="shape"/>
</filter>
<filter id="filter36_d_110_88" x="1652.74" y="55.7908" width="215.931" height="219.93" filterUnits="userSpaceOnUse" color-interpolation-filters="sRGB">
<feFlood flood-opacity="0" result="BackgroundImageFix"/>
<feColorMatrix in="SourceAlpha" type="matrix" values="0 0 0 0 0 0 0 0 0 0 0 0 0 0 0 0 0 0 127 0" result="hardAlpha"/>
<feOffset dy="8"/>
<feGaussianBlur stdDeviation="2"/>
<feComposite in2="hardAlpha" operator="out"/>
<feColorMatrix type="matrix" values="0 0 0 0 0 0 0 0 0 0 0 0 0 0 0 0 0 0 0.25 0"/>
<feBlend mode="normal" in2="BackgroundImageFix" result="effect1_dropShadow_110_88"/>
<feBlend mode="normal" in="SourceGraphic" in2="effect1_dropShadow_110_88" result="shape"/>
</filter>
<filter id="filter37_d_110_88" x="1652.72" y="286.809" width="215.931" height="219.93" filterUnits="userSpaceOnUse" color-interpolation-filters="sRGB">
<feFlood flood-opacity="0" result="BackgroundImageFix"/>
<feColorMatrix in="SourceAlpha" type="matrix" values="0 0 0 0 0 0 0 0 0 0 0 0 0 0 0 0 0 0 127 0" result="hardAlpha"/>
<feOffset dy="8"/>
<feGaussianBlur stdDeviation="2"/>
<feComposite in2="hardAlpha" operator="out"/>
<feColorMatrix type="matrix" values="0 0 0 0 0 0 0 0 0 0 0 0 0 0 0 0 0 0 0.25 0"/>
<feBlend mode="normal" in2="BackgroundImageFix" result="effect1_dropShadow_110_88"/>
<feBlend mode="normal" in="SourceGraphic" in2="effect1_dropShadow_110_88" result="shape"/>
</filter>
<filter id="filter38_d_110_88" x="1652.69" y="748.844" width="215.931" height="219.93" filterUnits="userSpaceOnUse" color-interpolation-filters="sRGB">
<feFlood flood-opacity="0" result="BackgroundImageFix"/>
<feColorMatrix in="SourceAlpha" type="matrix" values="0 0 0 0 0 0 0 0 0 0 0 0 0 0 0 0 0 0 127 0" result="hardAlpha"/>
<feOffset dy="8"/>
<feGaussianBlur stdDeviation="2"/>
<feComposite in2="hardAlpha" operator="out"/>
<feColorMatrix type="matrix" values="0 0 0 0 0 0 0 0 0 0 0 0 0 0 0 0 0 0 0.25 0"/>
<feBlend mode="normal" in2="BackgroundImageFix" result="effect1_dropShadow_110_88"/>
<feBlend mode="normal" in="SourceGraphic" in2="effect1_dropShadow_110_88" result="shape"/>
</filter>
<filter id="filter39_d_110_88" x="1652.71" y="517.826" width="215.931" height="219.93" filterUnits="userSpaceOnUse" color-interpolation-filters="sRGB">
<feFlood flood-opacity="0" result="BackgroundImageFix"/>
<feColorMatrix in="SourceAlpha" type="matrix" values="0 0 0 0 0 0 0 0 0 0 0 0 0 0 0 0 0 0 127 0" result="hardAlpha"/>
<feOffset dy="8"/>
<feGaussianBlur stdDeviation="2"/>
<feComposite in2="hardAlpha" operator="out"/>
<feColorMatrix type="matrix" values="0 0 0 0 0 0 0 0 0 0 0 0 0 0 0 0 0 0 0.25 0"/>
<feBlend mode="normal" in2="BackgroundImageFix" result="effect1_dropShadow_110_88"/>
<feBlend mode="normal" in="SourceGraphic" in2="effect1_dropShadow_110_88" result="shape"/>
</filter>
<filter id="filter40_d_110_88" x="1652.68" y="979.861" width="215.931" height="219.931" filterUnits="userSpaceOnUse" color-interpolation-filters="sRGB">
<feFlood flood-opacity="0" result="BackgroundImageFix"/>
<feColorMatrix in="SourceAlpha" type="matrix" values="0 0 0 0 0 0 0 0 0 0 0 0 0 0 0 0 0 0 127 0" result="hardAlpha"/>
<feOffset dy="8"/>
<feGaussianBlur stdDeviation="2"/>
<feComposite in2="hardAlpha" operator="out"/>
<feColorMatrix type="matrix" values="0 0 0 0 0 0 0 0 0 0 0 0 0 0 0 0 0 0 0.25 0"/>
<feBlend mode="normal" in2="BackgroundImageFix" result="effect1_dropShadow_110_88"/>
<feBlend mode="normal" in="SourceGraphic" in2="effect1_dropShadow_110_88" result="shape"/>
</filter>
<filter id="filter41_d_110_88" x="959.685" y="55.7454" width="215.93" height="219.93" filterUnits="userSpaceOnUse" color-interpolation-filters="sRGB">
<feFlood flood-opacity="0" result="BackgroundImageFix"/>
<feColorMatrix in="SourceAlpha" type="matrix" values="0 0 0 0 0 0 0 0 0 0 0 0 0 0 0 0 0 0 127 0" result="hardAlpha"/>
<feOffset dy="8"/>
<feGaussianBlur stdDeviation="2"/>
<feComposite in2="hardAlpha" operator="out"/>
<feColorMatrix type="matrix" values="0 0 0 0 0 0 0 0 0 0 0 0 0 0 0 0 0 0 0.25 0"/>
<feBlend mode="normal" in2="BackgroundImageFix" result="effect1_dropShadow_110_88"/>
<feBlend mode="normal" in="SourceGraphic" in2="effect1_dropShadow_110_88" result="shape"/>
</filter>
<filter id="filter42_d_110_88" x="-472" y="414" width="2864" height="825" filterUnits="userSpaceOnUse" color-interpolation-filters="sRGB">
<feFlood flood-opacity="0" result="BackgroundImageFix"/>
<feColorMatrix in="SourceAlpha" type="matrix" values="0 0 0 0 0 0 0 0 0 0 0 0 0 0 0 0 0 0 127 0" result="hardAlpha"/>
<feOffset dy="-30"/>
<feComposite in2="hardAlpha" operator="out"/>
<feColorMatrix type="matrix" values="0 0 0 0 1 0 0 0 0 1 0 0 0 0 1 0 0 0 1 0"/>
<feBlend mode="normal" in2="BackgroundImageFix" result="effect1_dropShadow_110_88"/>
<feBlend mode="normal" in="SourceGraphic" in2="effect1_dropShadow_110_88" result="shape"/>
</filter>
<filter id="filter43_d_110_88" x="-472" y="414" width="2864" height="825" filterUnits="userSpaceOnUse" color-interpolation-filters="sRGB">
<feFlood flood-opacity="0" result="BackgroundImageFix"/>
<feColorMatrix in="SourceAlpha" type="matrix" values="0 0 0 0 0 0 0 0 0 0 0 0 0 0 0 0 0 0 127 0" result="hardAlpha"/>
<feOffset dy="-30"/>
<feComposite in2="hardAlpha" operator="out"/>
<feColorMatrix type="matrix" values="0 0 0 0 1 0 0 0 0 1 0 0 0 0 1 0 0 0 1 0"/>
<feBlend mode="normal" in2="BackgroundImageFix" result="effect1_dropShadow_110_88"/>
<feBlend mode="normal" in="SourceGraphic" in2="effect1_dropShadow_110_88" result="shape"/>
</filter>
<clipPath id="clip0_110_88">
<rect width="1920" height="1240" fill="white"/>
</clipPath>
<clipPath id="clip1_110_88">
<rect width="89.1072" height="89.1072" fill="white" transform="translate(114.461 343.426)"/>
</clipPath>
<clipPath id="clip2_110_88">
<rect width="89.1072" height="89.1072" fill="white" transform="translate(1023.08 346.171)"/>
</clipPath>
</defs>
</svg>
