<svg width="326" height="49" viewBox="0 0 326 49" fill="none" xmlns="http://www.w3.org/2000/svg">
<path d="M21.66 26.6L19.84 12.18C19.84 10.78 20.4933 10.08 21.8 10.08C23.1067 10.08 23.8533 10.78 24.04 12.18C25.1133 19.6933 25.7433 24.3367 25.93 26.11C26.1633 27.8367 26.5367 29.96 27.05 32.48C28.2167 38.1733 28.8 42.28 28.8 44.8C28.8 46.2 28.1 46.9 26.7 46.9C25.3 46.9 24.6 46.2 24.6 44.8C24.6 42.6533 24.4133 40.74 24.04 39.06C23.7133 37.3333 23.41 35.8167 23.13 34.51C22.8967 33.2033 22.7333 32.3633 22.64 31.99C20.4 33.7167 16.8767 34.58 12.07 34.58C12.49 38.2667 12.7 40.9733 12.7 42.7C12.7 46.9 10.8333 49 7.1 49C4.81333 49 3.18 47.6 2.2 44.8C1.26667 42.28 0.8 39.5733 0.8 36.68C0.8 34.6267 1.54667 33.0633 3.04 31.99C4.58 30.9167 6.05 30.38 7.45 30.38C6.28333 20.16 5.7 13.3933 5.7 10.08C5.7 8.68 6.4 7.98 7.8 7.98C9.2 7.98 9.9 8.72667 9.9 10.22C9.9 11.7133 9.99333 13.6267 10.18 15.96C10.3667 18.7133 10.74 22.4933 11.3 27.3L11.72 30.38C14.7067 30.38 17.11 30.0067 18.93 29.26C20.75 28.5133 21.66 27.6267 21.66 26.6ZM5 37.1C5 38.0333 5.18667 39.55 5.56 41.65C5.98 43.75 6.49333 44.8 7.1 44.8C7.75333 44.8 8.15 44.66 8.29 44.38C8.43 44.1 8.5 43.54 8.5 42.7L7.8 34.58C7.05333 34.58 6.4 34.7667 5.84 35.14C5.28 35.5133 5 36.1667 5 37.1ZM63.1328 43.26C63.1328 43.26 63.8795 43.0733 65.3728 42.7C66.7728 42.7 67.4728 43.4 67.4728 44.8C67.4728 45.8267 66.7728 46.5733 65.3728 47.04C64.5328 47.32 63.6928 47.46 62.8528 47.46C62.0595 47.46 61.2895 47.2733 60.5428 46.9C59.7961 46.5267 59.2128 45.9667 58.7928 45.22C58.0928 44.0067 57.5795 42.7 57.2528 41.3L56.9728 40.11C56.1795 41.4633 54.2428 43.05 51.1628 44.87C48.1295 46.69 44.8861 47.6 41.4328 47.6C39.5661 47.6 37.9328 46.9 36.5328 45.5C35.1328 44.1 34.4328 42.4667 34.4328 40.6C34.4328 36.0733 36.2995 32.1533 40.0328 28.84C43.7661 25.48 47.5461 23.8 51.3728 23.8C53.4728 23.8 55.2695 24.1967 56.7628 24.99C58.3028 25.7367 59.0728 26.5067 59.0728 27.3C59.0728 28.7 58.3728 29.4 56.9728 29.4C56.6928 29.4 56.0161 29.1667 54.9428 28.7C53.8695 28.2333 52.6795 28 51.3728 28C48.8528 28 46.0995 29.2367 43.1128 31.71C40.1261 34.1367 38.6328 37.1 38.6328 40.6C38.6328 41.3 38.9128 41.9533 39.4728 42.56C40.0795 43.12 40.7328 43.4 41.4328 43.4C44.1861 43.4 46.7528 42.6767 49.1328 41.23C51.5128 39.7367 53.0295 38.5233 53.6828 37.59C54.3361 36.61 54.8728 35.7233 55.2928 34.93C55.7128 34.1367 56.0161 33.6233 56.2028 33.39C56.4361 33.11 56.9028 32.97 57.6028 32.97C58.3028 32.97 58.8395 33.2267 59.2128 33.74C59.5861 34.2533 59.9361 35.07 60.2628 36.19C60.5895 37.2633 60.9161 38.4767 61.2428 39.83C61.5695 41.1833 61.8495 42.0933 62.0828 42.56C62.3628 43.0267 62.7128 43.26 63.1328 43.26ZM83.4656 49H79.2656C75.3456 49 72.499 48.09 70.7256 46.27C68.9523 44.4033 68.0656 42.0467 68.0656 39.2C68.0656 35.0467 69.419 31.4533 72.1256 28.42C74.8323 25.34 77.9123 23.8 81.3656 23.8C83.3256 23.8 85.099 24.1967 86.6856 24.99C88.2723 25.7833 89.0656 26.5533 89.0656 27.3C89.0656 28.7 88.3656 29.4 86.9656 29.4C86.359 29.4 85.589 29.1667 84.6556 28.7C83.7223 28.2333 82.6256 28 81.3656 28C78.8456 28 76.699 29.19 74.9256 31.57C73.1523 33.9033 72.2656 36.2367 72.2656 38.57C72.2656 40.9033 72.8023 42.5367 73.8756 43.47C74.9956 44.3567 76.7923 44.8 79.2656 44.8H83.4656C86.6856 44.8 89.9056 44.2633 93.1256 43.19C94.1056 42.8633 94.6656 42.7 94.8056 42.7C96.2056 42.7 96.9056 43.4 96.9056 44.8C96.9056 45.8267 96.2056 46.5733 94.8056 47.04C90.8856 48.3467 87.1056 49 83.4656 49ZM117.06 48.3C114.587 48.3 112.673 47.18 111.32 44.94C110.013 42.7 109.36 40.1333 109.36 37.24C109.36 35.7467 110.06 35 111.46 35C112.86 35 113.56 35.84 113.56 37.52C113.56 39.2 113.887 40.7167 114.54 42.07C115.193 43.4233 115.987 44.1 116.92 44.1C117.9 44.1 119.09 43.8667 120.49 43.4C121.89 42.9333 122.66 42.7 122.8 42.7C124.2 42.7 124.9 43.4 124.9 44.8C124.9 45.8267 124.2 46.5733 122.8 47.04C120.28 47.88 118.367 48.3 117.06 48.3ZM103.06 2.94L102.99 4.13C102.43 9.73 102.057 13.8833 101.87 16.59C101.73 19.2967 101.66 22.5633 101.66 26.39C101.66 30.17 101.777 32.6433 102.01 33.81C103.13 31.3367 105.043 29.05 107.75 26.95C110.457 24.85 113.793 23.8 117.76 23.8C119.16 23.8 119.86 24.5 119.86 25.9C119.86 27.3 119.16 28 117.76 28C115.847 28 114.073 28.35 112.44 29.05C110.853 29.75 109.593 30.6133 108.66 31.64C106.887 33.6 105.767 35.35 105.3 36.89C105.207 37.17 105.043 37.7767 104.81 38.71C104.623 39.5967 104.483 40.18 104.39 40.46C104.343 40.7867 104.18 41.2067 103.9 41.72C103.433 42.6067 102.687 43.05 101.66 43.05C100.68 43.05 99.7235 41.51 98.7902 38.43C97.9035 35.3033 97.4602 32.5267 97.4602 30.1C97.4602 27.6733 97.4602 25.5033 97.4602 23.59C97.5068 21.63 97.5302 20.09 97.5302 18.97C97.5768 17.8033 97.6702 16.38 97.8102 14.7C97.9502 13.02 98.0202 11.9233 98.0202 11.41C98.1135 9.21666 98.3935 6.37 98.8602 2.87C99.0002 1.51666 99.7002 0.839998 100.96 0.839998C102.36 0.839998 103.06 1.54 103.06 2.94ZM161.22 11.2C161.407 11.1533 161.92 10.99 162.76 10.71C163.647 10.3833 164.184 10.1967 164.37 10.15C164.557 10.1033 165.024 9.96333 165.77 9.73C166.564 9.49666 167.077 9.35666 167.31 9.31C167.59 9.21667 168.057 9.1 168.71 8.96C169.41 8.77333 169.947 8.65666 170.32 8.61C170.694 8.51666 171.207 8.42333 171.86 8.33C172.514 8.23667 173.097 8.16667 173.61 8.12C174.637 8.02666 175.92 7.98 177.46 7.98C180.96 7.98 184.414 9.00666 187.82 11.06C189.22 11.9 189.92 12.67 189.92 13.37C189.92 14.07 189.757 14.5833 189.43 14.91C189.15 15.2367 188.66 15.4 187.96 15.4C187.307 15.4 186.747 15.26 186.28 14.98C183.154 13.1133 180.26 12.18 177.6 12.18C174.94 12.18 172.584 12.4133 170.53 12.88C168.524 13.3467 165.957 14.0933 162.83 15.12C162.084 15.3067 161.547 15.4 161.22 15.4C159.82 15.4 159.12 14.7 159.12 13.3C159.12 12.3667 159.82 11.6667 161.22 11.2ZM175.22 44.73L177.46 44.8C180.867 44.8 184.764 43.2133 189.15 40.04C189.524 39.76 190.014 39.62 190.62 39.62C192.02 39.62 192.72 40.32 192.72 41.72C192.72 42.2333 192.16 42.91 191.04 43.75C186.327 47.25 181.964 49 177.95 49C173.984 49 170.997 48.5333 168.99 47.6C166.984 46.6667 165.444 45.22 164.37 43.26C164.137 42.7933 164.02 42.3267 164.02 41.86C164.02 40.46 164.72 39.76 166.12 39.76C166.727 39.76 167.217 40.0167 167.59 40.53C168.01 40.9967 168.22 41.3233 168.22 41.51C168.64 42.35 169.55 43.1433 170.95 43.89C170.53 38.85 170.32 33.5533 170.32 28V19.6C170.32 18.2 171.02 17.5 172.42 17.5C173.82 17.5 174.52 18.2 174.52 19.6V28C174.52 32.9933 174.707 37.8 175.08 42.42L175.22 44.73ZM231.89 39.06C231.89 35.2333 233.197 31.7333 235.81 28.56C238.424 25.3867 241.317 23.8 244.49 23.8C246.73 23.8 248.574 24.43 250.02 25.69C251.467 26.95 252.19 28.7 252.19 30.94C252.19 33.18 251.257 35.28 249.39 37.24C247.57 39.2 245.61 40.6467 243.51 41.58C241.41 42.5133 239.66 42.98 238.26 42.98C239.94 44.1933 242.437 44.8 245.75 44.8C249.064 44.8 252.33 44.2633 255.55 43.19C256.53 42.8633 257.09 42.7 257.23 42.7C258.63 42.7 259.33 43.4 259.33 44.8C259.33 45.8267 258.63 46.5733 257.23 47.04C253.31 48.3467 249.53 49 245.89 49C242.997 49 240.104 48.4167 237.21 47.25C235.624 46.5967 234.34 45.57 233.36 44.17C232.38 42.77 231.89 41.0667 231.89 39.06ZM236.09 39.06C238.89 39.06 241.574 38.1733 244.14 36.4C246.707 34.6267 247.99 32.76 247.99 30.8C247.99 28.9333 246.917 28 244.77 28C242.624 28 240.64 29.1667 238.82 31.5C237 33.7867 236.09 36.3067 236.09 39.06ZM217.19 34.93C217.19 33.11 215.79 32.0133 212.99 31.64C212.477 31.5467 212.01 31.5 211.59 31.5C209.164 31.5 207.04 32.5033 205.22 34.51C203.4 36.47 202.49 38.5 202.49 40.6C202.49 43.4 203.89 44.8 206.69 44.8C208.884 44.8 210.914 43.96 212.78 42.28C214.694 40.6 216.164 38.15 217.19 34.93ZM218.24 28.98C218.24 26.7867 217.82 23.1467 216.98 18.06C216.187 12.9267 215.79 9.45 215.79 7.63C215.79 5.76333 216.094 4.31666 216.7 3.29C217.307 2.26333 217.75 1.61 218.03 1.33C218.357 1.00333 218.777 0.839998 219.29 0.839998C220.69 0.839998 221.39 1.54 221.39 2.94C221.39 3.40667 221.157 4.03667 220.69 4.83C220.224 5.57667 219.99 6.62667 219.99 7.98C219.99 9.33333 220.387 12.5533 221.18 17.64C222.02 22.7267 222.44 26.6933 222.44 29.54C222.44 32.3867 221.787 35.3267 220.48 38.36C219.22 41.3933 217.354 43.9367 214.88 45.99C212.454 47.9967 209.817 49 206.97 49C204.17 49 202.024 48.2533 200.53 46.76C199.037 45.2667 198.29 43.2133 198.29 40.6C198.29 37.1933 199.644 34.1367 202.35 31.43C205.104 28.6767 207.997 27.3 211.03 27.3C214.11 27.3 216.514 27.86 218.24 28.98ZM288.582 43.26C288.582 43.26 289.329 43.0733 290.822 42.7C292.222 42.7 292.922 43.4 292.922 44.8C292.922 45.8267 292.222 46.5733 290.822 47.04C289.982 47.32 289.142 47.46 288.302 47.46C287.509 47.46 286.739 47.2733 285.992 46.9C285.245 46.5267 284.662 45.9667 284.242 45.22C283.542 44.0067 283.029 42.7 282.702 41.3L282.422 40.11C281.629 41.4633 279.692 43.05 276.612 44.87C273.579 46.69 270.335 47.6 266.882 47.6C265.015 47.6 263.382 46.9 261.982 45.5C260.582 44.1 259.882 42.4667 259.882 40.6C259.882 36.0733 261.749 32.1533 265.482 28.84C269.215 25.48 272.995 23.8 276.822 23.8C278.922 23.8 280.719 24.1967 282.212 24.99C283.752 25.7367 284.522 26.5067 284.522 27.3C284.522 28.7 283.822 29.4 282.422 29.4C282.142 29.4 281.465 29.1667 280.392 28.7C279.319 28.2333 278.129 28 276.822 28C274.302 28 271.549 29.2367 268.562 31.71C265.575 34.1367 264.082 37.1 264.082 40.6C264.082 41.3 264.362 41.9533 264.922 42.56C265.529 43.12 266.182 43.4 266.882 43.4C269.635 43.4 272.202 42.6767 274.582 41.23C276.962 39.7367 278.479 38.5233 279.132 37.59C279.785 36.61 280.322 35.7233 280.742 34.93C281.162 34.1367 281.465 33.6233 281.652 33.39C281.885 33.11 282.352 32.97 283.052 32.97C283.752 32.97 284.289 33.2267 284.662 33.74C285.035 34.2533 285.385 35.07 285.712 36.19C286.039 37.2633 286.365 38.4767 286.692 39.83C287.019 41.1833 287.299 42.0933 287.532 42.56C287.812 43.0267 288.162 43.26 288.582 43.26ZM290.575 42.63C293.095 41.6033 295.078 40.53 296.525 39.41C297.972 38.2433 299.745 36.5633 301.845 34.37C303.945 32.1767 305.322 30.8 305.975 30.24C308.215 28.28 310.595 27.3 313.115 27.3C314.655 27.3 316.335 27.6733 318.155 28.42C320.022 29.1667 321.748 30.4967 323.335 32.41C324.922 34.3233 325.715 36.61 325.715 39.27C325.715 41.8833 324.175 44.17 321.095 46.13C318.015 48.0433 313.955 49 308.915 49C307.515 49 306.815 48.3 306.815 46.9C306.815 45.5 307.515 44.8 308.915 44.8C312.742 44.8 315.798 44.1933 318.085 42.98C320.372 41.72 321.515 40.46 321.515 39.2C321.515 37.4733 320.955 35.98 319.835 34.72C317.875 32.5733 315.635 31.5 313.115 31.5C311.668 31.5 310.245 32.1067 308.845 33.32C308.425 33.6933 307.072 35.0467 304.785 37.38C302.545 39.7133 300.678 41.4633 299.185 42.63C297.738 43.7967 296.058 44.8 294.145 45.64C292.278 46.48 291.088 46.9 290.575 46.9C289.175 46.9 288.475 46.2 288.475 44.8C288.475 43.9133 289.175 43.19 290.575 42.63Z" fill="#A88AFE"/>
</svg>
